<?xml version="1.0" encoding="UTF-8" standalone="no"?>
<svg
   xmlns:dc="http://purl.org/dc/elements/1.1/"
   xmlns:cc="http://creativecommons.org/ns#"
   xmlns:rdf="http://www.w3.org/1999/02/22-rdf-syntax-ns#"
   xmlns:svg="http://www.w3.org/2000/svg"
   xmlns="http://www.w3.org/2000/svg"
   xmlns:sodipodi="http://sodipodi.sourceforge.net/DTD/sodipodi-0.dtd"
   xmlns:inkscape="http://www.inkscape.org/namespaces/inkscape"
   version="1.1"
   x="0px"
   y="0px"
   viewBox="0 0 100 100"
   enable-background="new 0 0 100 100"
   xml:space="preserve"
   id="svg2"
   inkscape:version="0.91 r13725"
   sodipodi:docname="cross2.svg"><metadata
     id="metadata12"><rdf:RDF><cc:Work
         rdf:about=""><dc:format>image/svg+xml</dc:format><dc:type
           rdf:resource="http://purl.org/dc/dcmitype/StillImage" /></cc:Work></rdf:RDF></metadata><defs
     id="defs10" /><sodipodi:namedview
     pagecolor="#ffffff"
     bordercolor="#666666"
     borderopacity="1"
     objecttolerance="10"
     gridtolerance="10"
     guidetolerance="10"
     inkscape:pageopacity="0"
     inkscape:pageshadow="2"
     inkscape:window-width="1920"
     inkscape:window-height="1023"
     id="namedview8"
     showgrid="false"
     inkscape:zoom="2.36"
     inkscape:cx="-54.025424"
     inkscape:cy="50"
     inkscape:window-x="0"
     inkscape:window-y="0"
     inkscape:window-maximized="1"
     inkscape:current-layer="svg2" /><g
     id="g4"
     style="fill:#b50101;fill-opacity:1"
     transform="matrix(0.75459979,0,0,0.75459979,12.270072,12.270072)"><path
       d="m 83.288,88.13 c -2.114,2.112 -5.575,2.112 -7.689,0 L 53.659,66.188 c -2.114,-2.112 -5.573,-2.112 -7.687,0 L 24.251,87.907 c -2.113,2.114 -5.571,2.114 -7.686,0 l -4.693,-4.691 c -2.114,-2.114 -2.114,-5.573 0,-7.688 L 33.591,53.807 c 2.113,-2.114 2.113,-5.573 0,-7.686 L 11.872,24.4 c -2.114,-2.113 -2.114,-5.571 0,-7.686 l 4.842,-4.842 c 2.113,-2.114 5.571,-2.114 7.686,0 l 21.72,21.719 c 2.114,2.114 5.572,2.114 7.688,0 L 75.529,11.872 c 2.114,-2.114 5.573,-2.114 7.687,0 l 4.695,4.695 c 2.111,2.113 2.111,5.571 -0.003,7.686 l -21.72,21.72 c -2.112,2.114 -2.112,5.573 0,7.686 L 88.13,75.602 c 2.112,2.111 2.112,5.572 0,7.687 l -4.842,4.841 z"
       id="path6"
       style="fill:#b50101;fill-opacity:1"
       inkscape:connector-curvature="0" /></g></svg>