<?xml version="1.0" encoding="UTF-8" standalone="no"?>
<svg
   xmlns:dc="http://purl.org/dc/elements/1.1/"
   xmlns:cc="http://creativecommons.org/ns#"
   xmlns:rdf="http://www.w3.org/1999/02/22-rdf-syntax-ns#"
   xmlns:svg="http://www.w3.org/2000/svg"
   xmlns="http://www.w3.org/2000/svg"
   xmlns:sodipodi="http://sodipodi.sourceforge.net/DTD/sodipodi-0.dtd"
   xmlns:inkscape="http://www.inkscape.org/namespaces/inkscape"
   version="1.1"
   x="0px"
   y="0px"
   viewBox="0 0 100 100"
   enable-background="new 0 0 100 100"
   xml:space="preserve"
   id="svg2"
   inkscape:version="0.91 r13725"
   sodipodi:docname="faq.svg"><metadata
     id="metadata20"><rdf:RDF><cc:Work
         rdf:about=""><dc:format>image/svg+xml</dc:format><dc:type
           rdf:resource="http://purl.org/dc/dcmitype/StillImage" /></cc:Work></rdf:RDF></metadata><defs
     id="defs18" /><sodipodi:namedview
     pagecolor="#ffffff"
     bordercolor="#666666"
     borderopacity="1"
     objecttolerance="10"
     gridtolerance="10"
     guidetolerance="10"
     inkscape:pageopacity="0"
     inkscape:pageshadow="2"
     inkscape:window-width="1920"
     inkscape:window-height="1176"
     id="namedview16"
     showgrid="false"
     inkscape:zoom="4.72"
     inkscape:cx="1.4784799"
     inkscape:cy="67.997635"
     inkscape:window-x="0"
     inkscape:window-y="24"
     inkscape:window-maximized="1"
     inkscape:current-layer="g4" /><g
     id="g4"><g
       id="g3338"
       transform="matrix(1.0357633,0,0,1.0357633,-1.7931701,-1.7184808)"><path
         style="fill:#ffffff"
         id="path6"
         d="m 68.633,55.761 c -0.157,0 -0.317,0.01 -0.474,0.032 -1.972,0.264 -3.362,2.081 -3.1,4.053 0.238,1.785 1.777,3.131 3.579,3.131 0.158,0 0.317,-0.01 0.475,-0.031 1.971,-0.264 3.361,-2.081 3.1,-4.054 -0.239,-1.785 -1.778,-3.131 -3.58,-3.131 z"
         inkscape:connector-curvature="0" /><path
         style="fill:#ffffff"
         id="path8"
         d="m 73.58,34.083 c -1.609,-1.063 -3.733,-1.625 -6.146,-1.625 -0.709,0 -1.438,0.049 -2.166,0.146 -2.408,0.321 -4.744,1.487 -6.41,3.197 -1.689,1.736 -2.51,3.855 -2.248,5.813 0.192,1.445 1.28,2.379 2.771,2.379 0.16,0 0.323,-0.012 0.486,-0.033 1.992,-0.266 2.422,-1.638 2.836,-2.964 0.473,-1.512 0.919,-2.939 3.493,-3.283 0.264,-0.035 0.521,-0.053 0.765,-0.053 1.853,0 3.003,0.978 3.24,2.754 0.232,1.738 -1.142,3.124 -2.597,4.591 -1.633,1.647 -3.484,3.513 -3.131,6.16 0.091,0.682 0.392,1.318 0.846,1.791 0.521,0.543 1.203,0.83 1.972,0.83 0.141,0 0.287,-0.009 0.432,-0.029 2.084,-0.278 2.368,-1.487 2.642,-2.658 0.104,-0.442 0.212,-0.9 0.42,-1.312 0.289,-0.576 1.012,-1.252 1.851,-2.034 2.002,-1.871 4.743,-4.433 4.236,-8.228 -0.317,-2.377 -1.426,-4.208 -3.292,-5.442 z"
         inkscape:connector-curvature="0" /><path
         style="fill:#ffffff"
         id="path10"
         d="M 95.961,65.606 90.378,23.766 C 90.091,21.62 88.243,20 86.078,20 c -0.191,0 -0.386,0.013 -0.577,0.039 l -41.839,5.583 c -2.372,0.317 -4.044,2.504 -3.728,4.877 l 0.319,2.394 -27.441,-3.965 c -0.16,-0.023 -0.323,-0.035 -0.484,-0.035 -1.661,0 -3.092,1.241 -3.331,2.886 L 4.315,64.188 c -0.128,0.891 0.098,1.777 0.636,2.498 0.539,0.72 1.325,1.188 2.216,1.316 l 32.408,4.682 c 0.161,0.022 0.324,0.033 0.484,0.033 1.661,0 3.092,-1.239 3.33,-2.885 l 0.932,-6.453 1.195,8.957 c 0.287,2.148 2.135,3.767 4.299,3.767 0.192,0 0.387,-0.012 0.578,-0.037 l 41.84,-5.585 c 1.147,-0.152 2.169,-0.744 2.873,-1.665 0.706,-0.92 1.008,-2.061 0.855,-3.21 z m -55.338,3.828 c -0.044,0.307 -0.334,0.529 -0.647,0.483 L 7.567,65.235 C 7.362,65.206 7.244,65.083 7.191,65.012 7.138,64.941 7.054,64.791 7.083,64.587 l 4.682,-32.409 c 0.041,-0.279 0.283,-0.49 0.563,-0.49 0.028,0 0.057,0.002 0.084,0.006 l 28.226,4.077 2.328,17.444 -2.343,16.219 z m 51.621,-2.807 c -0.069,0.091 -0.225,0.248 -0.488,0.283 L 49.917,72.494 C 49.512,72.55 49.143,72.259 49.089,71.861 L 43.506,30.022 c -0.054,-0.403 0.23,-0.774 0.633,-0.828 L 85.977,23.61 c 0.035,-0.004 0.067,-0.006 0.102,-0.006 0.366,0 0.68,0.275 0.728,0.64 l 5.585,41.84 c 0.033,0.263 -0.08,0.453 -0.148,0.543 z"
         inkscape:connector-curvature="0" /><path
         style="fill:#ffffff"
         id="path12"
         d="m 33.159,41.087 c -1.284,-1.176 -3.186,-1.997 -5.354,-2.31 -0.396,-0.058 -0.803,-0.087 -1.208,-0.087 -1.703,0 -3.377,0.5 -4.717,1.408 -1.377,0.934 -2.246,2.203 -2.443,3.572 -0.094,0.651 0.061,1.231 0.45,1.679 0.35,0.402 0.877,0.673 1.485,0.761 0.153,0.022 0.3,0.034 0.44,0.034 1.227,0 1.775,-0.837 2.305,-1.646 0.591,-0.906 1.151,-1.762 2.64,-1.762 0.206,0 0.429,0.017 0.66,0.05 1.764,0.254 2.645,1.298 2.418,2.864 -0.193,1.345 -1.513,2.09 -2.908,2.877 -1.567,0.884 -3.344,1.886 -3.64,3.937 -0.083,0.572 0.033,1.168 0.32,1.633 0.235,0.382 0.695,0.863 1.557,0.988 0.18,0.025 0.351,0.039 0.509,0.039 l 0.001,0 c 1.212,0 1.625,-0.745 2.023,-1.465 0.171,-0.309 0.347,-0.628 0.59,-0.891 0.337,-0.369 1.021,-0.721 1.812,-1.128 1.89,-0.972 4.479,-2.306 4.903,-5.244 0.301,-2.091 -0.335,-3.927 -1.843,-5.309 z"
         inkscape:connector-curvature="0" /><path
         style="fill:#ffffff"
         id="path14"
         d="m 25.057,56.696 c -0.132,-0.019 -0.265,-0.03 -0.397,-0.03 -1.383,0 -2.576,1.033 -2.774,2.4 -0.219,1.527 0.844,2.949 2.371,3.17 0.132,0.02 0.266,0.028 0.397,0.028 1.384,0 2.577,-1.031 2.774,-2.398 0.219,-1.527 -0.844,-2.948 -2.371,-3.17 z"
         inkscape:connector-curvature="0" /></g></g></svg>