<?xml version="1.0" encoding="UTF-8" standalone="no"?>
<svg
   xmlns:dc="http://purl.org/dc/elements/1.1/"
   xmlns:cc="http://creativecommons.org/ns#"
   xmlns:rdf="http://www.w3.org/1999/02/22-rdf-syntax-ns#"
   xmlns:svg="http://www.w3.org/2000/svg"
   xmlns="http://www.w3.org/2000/svg"
   xmlns:sodipodi="http://sodipodi.sourceforge.net/DTD/sodipodi-0.dtd"
   xmlns:inkscape="http://www.inkscape.org/namespaces/inkscape"
   version="1.1"
   x="0px"
   y="0px"
   viewBox="0 0 100 99.999998"
   enable-background="new 0 0 100 82.428"
   xml:space="preserve"
   id="svg2"
   inkscape:version="0.91 r13725"
   sodipodi:docname="groups.svg"
   width="100"
   height="100"><metadata
     id="metadata28"><rdf:RDF><cc:Work
         rdf:about=""><dc:format>image/svg+xml</dc:format><dc:type
           rdf:resource="http://purl.org/dc/dcmitype/StillImage" /><dc:title></dc:title></cc:Work></rdf:RDF></metadata><defs
     id="defs26" /><sodipodi:namedview
     pagecolor="#ffffff"
     bordercolor="#666666"
     borderopacity="1"
     objecttolerance="10"
     gridtolerance="10"
     guidetolerance="10"
     inkscape:pageopacity="0"
     inkscape:pageshadow="2"
     inkscape:window-width="1920"
     inkscape:window-height="1176"
     id="namedview24"
     showgrid="false"
     inkscape:zoom="2.8631047"
     inkscape:cx="50"
     inkscape:cy="41.214001"
     inkscape:window-x="0"
     inkscape:window-y="24"
     inkscape:window-maximized="1"
     inkscape:current-layer="svg2" /><g
     id="g3356"
     transform="matrix(0.9,0,0,0.9,5,-2.9073991)"
     style="fill:#ffffff"><path
       inkscape:connector-curvature="0"
       id="path4"
       d="m 90.702,44.706999 c -3.131,0 -5.673,2.541 -5.673,5.661 0,3.119 2.542,5.661 5.673,5.661 3.119,0 5.66,-2.542 5.66,-5.661 0,-3.12 -2.541,-5.661 -5.66,-5.661 z"
       style="fill:#ffffff" /><path
       inkscape:connector-curvature="0"
       id="path6"
       d="m 9.31,44.706999 c -3.131,0 -5.673,2.541 -5.673,5.661 0,3.119 2.542,5.661 5.673,5.661 3.119,0 5.661,-2.542 5.661,-5.661 0,-3.12 -2.542,-5.661 -5.661,-5.661 z"
       style="fill:#ffffff" /><path
       inkscape:connector-curvature="0"
       id="path8"
       d="m 73.853,34.408999 c -4.648,0 -8.418,3.782 -8.418,8.431 0,4.643 3.77,8.419 8.418,8.419 4.649,0 8.431,-3.776 8.431,-8.419 -0.001,-4.649 -3.782,-8.431 -8.431,-8.431 z"
       style="fill:#ffffff" /><path
       inkscape:connector-curvature="0"
       id="path10"
       d="m 100,85.642999 -9.599,0 0,-17.668 c 0,-3.041 -0.892,-5.859 -2.325,-8.31 0.844,-0.247 1.711,-0.422 2.626,-0.422 5.119,0 9.298,4.179 9.298,9.31 l 0,17.09 z"
       style="fill:#ffffff" /><path
       inkscape:connector-curvature="0"
       id="path12"
       d="m 26.147,34.408999 c -4.649,0 -8.431,3.782 -8.431,8.431 0,4.643 3.781,8.419 8.431,8.419 4.637,0 8.418,-3.776 8.418,-8.419 0,-4.649 -3.781,-8.431 -8.418,-8.431 z"
       style="fill:#ffffff" /><path
       inkscape:connector-curvature="0"
       id="path14"
       d="m 9.31,59.242999 c 0.915,0 1.771,0.175 2.613,0.422 -1.445,2.451 -2.324,5.269 -2.324,8.31 l 0,17.668 -9.599,0 0,-17.09 c 0,-5.13 4.179,-9.31 9.31,-9.31 z"
       style="fill:#ffffff" /><path
       inkscape:connector-curvature="0"
       id="path16"
       d="m 49.994,17.571999 c -6.865,0 -12.453,5.588 -12.453,12.453 0,6.871 5.588,12.465 12.453,12.465 6.865,0 12.465,-5.594 12.465,-12.465 0,-6.865 -5.6,-12.453 -12.465,-12.453 z"
       style="fill:#ffffff" /><path
       inkscape:connector-curvature="0"
       id="path18"
       d="m 87.317,92.218999 -14.705,0 0,-26.881 c 0,-3.697 -0.976,-7.136 -2.554,-10.219 1.205,-0.355 2.47,-0.608 3.794,-0.608 7.419,0 13.465,6.04 13.465,13.465 l 0,24.243 z"
       style="fill:#ffffff" /><path
       inkscape:connector-curvature="0"
       id="path20"
       d="m 27.376,65.337999 0,26.882 -14.694,0 0,-24.245 c 0,-7.425 6.034,-13.465 13.465,-13.465 1.324,0 2.577,0.253 3.781,0.608 -1.576,3.084 -2.552,6.522 -2.552,10.22 z"
       style="fill:#ffffff" /><path
       inkscape:connector-curvature="0"
       id="path22"
       d="m 30.459,99.999999 39.07,0 0,-34.662 c 0,-10.773 -8.769,-19.535 -19.535,-19.535 -10.779,0 -19.535,8.762 -19.535,19.535 l 0,34.662 z"
       style="fill:#ffffff" /></g></svg>