<?xml version="1.0" encoding="UTF-8" standalone="no"?>
<!-- Created with Inkscape (http://www.inkscape.org/) -->

<svg
   xmlns:dc="http://purl.org/dc/elements/1.1/"
   xmlns:cc="http://creativecommons.org/ns#"
   xmlns:rdf="http://www.w3.org/1999/02/22-rdf-syntax-ns#"
   xmlns:svg="http://www.w3.org/2000/svg"
   xmlns="http://www.w3.org/2000/svg"
   xmlns:sodipodi="http://sodipodi.sourceforge.net/DTD/sodipodi-0.dtd"
   xmlns:inkscape="http://www.inkscape.org/namespaces/inkscape"
   width="500"
   height="500"
   id="svg2"
   version="1.1"
   inkscape:version="0.48.3.1 r9886"
   sodipodi:docname="huitparfait-logo.svg"
   inkscape:export-xdpi="35.279999"
   inkscape:export-ydpi="35.279999">
  <defs
     id="defs4" />
  <sodipodi:namedview
     id="base"
     pagecolor="#ffffff"
     bordercolor="#666666"
     borderopacity="1.0"
     inkscape:pageopacity="0.0"
     inkscape:pageshadow="2"
     inkscape:zoom="0.24748737"
     inkscape:cx="-557.90446"
     inkscape:cy="-167.24768"
     inkscape:document-units="px"
     inkscape:current-layer="layer1"
     showgrid="false"
     fit-margin-top="0"
     fit-margin-left="0"
     fit-margin-right="0"
     fit-margin-bottom="0"
     inkscape:showpageshadow="false"
     showborder="false"
     inkscape:window-width="1600"
     inkscape:window-height="876"
     inkscape:window-x="0"
     inkscape:window-y="24"
     inkscape:window-maximized="1" />
  <metadata
     id="metadata7">
    <rdf:RDF>
      <cc:Work
         rdf:about="">
        <dc:format>image/svg+xml</dc:format>
        <dc:type
           rdf:resource="http://purl.org/dc/dcmitype/StillImage" />
        <dc:title />
      </cc:Work>
    </rdf:RDF>
  </metadata>
  <g
     inkscape:label="Calque 1"
     inkscape:groupmode="layer"
     id="layer1"
     transform="translate(-2318.4294,-23.790756)">
    <rect
       style="fill:#4db788;fill-opacity:1;stroke:none"
       id="rect3799"
       width="500"
       height="500"
       x="2318.4294"
       y="23.790756"
       ry="18.571428"
       inkscape:export-xdpi="90"
       inkscape:export-ydpi="90" />
    <g
       style="font-size:727.13891602px;font-style:normal;font-weight:normal;line-height:125%;letter-spacing:0px;word-spacing:0px;fill:#ffffff;fill-opacity:1;stroke:none;font-family:Sans"
       id="text3801">
      <path
         d="m 2739.1567,218.16459 c -43.6283,0 -66.1697,-33.44842 -66.1697,-63.98823 0,-37.81118 23.9957,-63.98822 69.8054,-63.98822 32.7212,0 59.6254,24.72276 59.6254,63.98822 0,37.08405 -23.2685,63.98823 -63.2611,63.98823 m 178.149,153.42631 c 0,-66.89671 -27.6313,-99.61806 -77.0767,-124.34075 41.4469,-21.81415 59.6254,-59.62544 59.6254,-103.98087 0,-71.259542 -56.717,-134.5206985 -163.6063,-134.5206985 -90.1651,0 -160.6977,53.0812285 -160.6977,141.0649485 0,47.99112 21.8142,80.71244 62.534,101.07231 -78.531,36.35691 -78.531,104.70803 -78.531,130.88501 0,70.5324 45.8098,157.062 178.8761,157.062 136.702,0 178.8762,-101.79951 178.8762,-167.24195 m -104.708,4.36283 c 0,35.62978 -20.3599,81.43956 -73.441,81.43956 -46.5369,0 -74.8953,-32.7213 -74.8953,-82.16669 0,-55.98965 35.6298,-79.98529 72.7139,-79.98529 56.7167,0 75.6224,44.35551 75.6224,80.71242"
         style="font-variant:normal;font-weight:bold;font-stretch:normal;fill:#ffffff;font-family:Helvetica LT Std;-inkscape-font-specification:Helvetica LT Std Bold"
         id="path2986" />
    </g>
  </g>
</svg>
