<svg xmlns="http://www.w3.org/2000/svg" width="500" height="500"><path fill="#4db788" d="M18.6 0C8.3 0 0 8.3 0 18.6v462.8C0 491.7 8.3 500 18.6 500H335c-68.4-27.8-94-89.4-94-142 0-26.2 0-94.5 78.7-131C279 206.8 257 174 257 126c0-60.4 33.4-104.4 83.5-126h-322z"/><path fill="#fff" d="M340.5 0c-50 21.6-83.4 65.6-83.4 126 0 48 22 80.7 62.7 101C241 263.6 241 332 241 358c0 52.6 25.6 114.2 94 142h146.4c10.3 0 18.6-8.3 18.6-18.6V18.6C500 8.3 491.7 0 481.4 0h-141z" style="line-height:125%;-inkscape-font-specification:'Helvetica LT Std Bold'" font-weight="bold" font-family="Helvetica LT Std" letter-spacing="0" word-spacing="0"/><path fill="#4db788" d="M420.7 194.4c-43.6 0-66-33.5-66-64 0-37.8 24-64 69.7-64 32.7 0 59.6 24.7 59.6 64 0 37-23.3 64-63.3 64M494.2 352.2c0 35.6-20.4 81.4-73.5 81.4-46.5 0-75-32.7-75-82.2 0-56 35.8-80 72.8-80 56.8 0 75.7 44.4 75.7 80.8" style="line-height:125%;-inkscape-font-specification:'Helvetica LT Std Bold'" font-weight="bold" font-family="Helvetica LT Std" letter-spacing="0" word-spacing="0"/></svg>