<?xml version="1.0" encoding="UTF-8" standalone="no"?>
<svg
   xmlns:dc="http://purl.org/dc/elements/1.1/"
   xmlns:cc="http://creativecommons.org/ns#"
   xmlns:rdf="http://www.w3.org/1999/02/22-rdf-syntax-ns#"
   xmlns:svg="http://www.w3.org/2000/svg"
   xmlns="http://www.w3.org/2000/svg"
   xmlns:sodipodi="http://sodipodi.sourceforge.net/DTD/sodipodi-0.dtd"
   xmlns:inkscape="http://www.inkscape.org/namespaces/inkscape"
   version="1.1"
   x="0px"
   y="0px"
   viewBox="0 0 100 100"
   enable-background="new 0 0 100 100"
   xml:space="preserve"
   id="svg2"
   inkscape:version="0.91 r13725"
   sodipodi:docname="predictions.svg"><metadata
     id="metadata10"><rdf:RDF><cc:Work
         rdf:about=""><dc:format>image/svg+xml</dc:format><dc:type
           rdf:resource="http://purl.org/dc/dcmitype/StillImage" /><dc:title /></cc:Work></rdf:RDF></metadata><defs
     id="defs8" /><sodipodi:namedview
     pagecolor="#ffffff"
     bordercolor="#666666"
     borderopacity="1"
     objecttolerance="10"
     gridtolerance="10"
     guidetolerance="10"
     inkscape:pageopacity="0"
     inkscape:pageshadow="2"
     inkscape:window-width="1920"
     inkscape:window-height="1176"
     id="namedview6"
     showgrid="false"
     inkscape:zoom="2.36"
     inkscape:cx="-40.677966"
     inkscape:cy="50"
     inkscape:window-x="0"
     inkscape:window-y="24"
     inkscape:window-maximized="1"
     inkscape:current-layer="svg2" /><path
     d="M 88.412516,31.794208 C 83.807846,22.092003 75.786717,14.545424 65.828021,10.545624 60.797709,8.5249606 55.47294,7.5 49.999999,7.5 44.777157,7.5 39.676063,8.4371877 34.839225,10.284193 25.453399,13.869668 17.607812,20.703682 12.750211,29.525326 9.3158198,35.7572 7.5,42.837544 7.5,50.000943 c 0,1.89797 0.1264656,3.807266 0.3756218,5.675035 0.3935535,2.954076 1.1023272,5.867569 2.1036706,8.659312 l 0,0 c 2.8520836,7.968455 7.9805466,14.849659 14.8276226,19.897071 l 0.167991,0.122693 0.0038,0 c 6.978259,5.093658 15.233444,7.904277 23.885958,8.1289 0.364297,0.01132 0.735199,0.01605 1.134415,0.01605 11.329055,0 21.987087,-4.403744 30.00916,-12.405231 C 87.323404,72.800182 91.726106,63.12346 92.404679,52.846485 92.466965,51.901747 92.5,50.943796 92.5,50.000944 92.5,43.630333 91.125866,37.505109 88.412518,31.79421 Z m -9.365062,46.173246 5.091656,-13.585918 6.187379,-11.697386 0.792769,0.464346 c -0.725762,9.591782 -4.793425,18.621061 -11.50271,25.54568 L 79.047454,77.967454 Z M 48.841989,88.856009 33.313143,83.781227 29.998612,72.962513 l 13.252465,-5.978936 15.944106,4.974739 3.017243,10.612023 -13.370437,6.28567 z M 35.697115,18.465945 49.436566,22.047645 51.5761,36.758565 39.242871,48.485209 24.637979,44.884634 22.188887,30.000999 35.697115,18.465945 Z m 53.714857,33.250816 -6.144908,11.618107 -9.614218,-3.690236 -3.506118,-17.174224 6.846131,-11.013135 8.756329,3.270248 3.662784,16.98924 z M 52.413227,37.703303 68.936811,42.842263 72.412728,59.869255 59.565141,70.75309 43.746557,65.817047 40.119636,49.392195 52.413227,37.703303 Z m 34.699713,-5.698629 -1.053251,1.493083 -8.963958,-3.347638 -10.873213,-12.10605 0,-5.969498 c 9.150826,3.915802 16.532077,10.955563 20.890422,19.930103 z m -22.150359,-20.442583 0,6.210165 -14.946538,3.12396 -13.87913,-3.618508 -0.411485,-5.976105 c 4.563144,-1.6837287 9.362231,-2.5397501 14.274571,-2.5397501 5.168103,-9.438e-4 10.198414,0.9428505 14.962582,2.8002381 z m -51.282753,18.89476 7.295367,-0.0689 2.456642,14.929882 -5.753242,13.425473 -6.579987,0 -1.9885308,-3.360851 C 8.8788528,53.609069 8.7608811,51.799815 8.7608811,50.000943 c 0,-6.827408 1.7006799,-13.576481 4.9189469,-19.544092 z m -2.471743,33.565099 0.139679,-4.016788 6.451634,0 10.868493,12.917712 3.266399,10.662044 -6.524304,-0.474729 C 18.868693,78.243986 13.962015,71.649695 11.208085,64.02195 Z m 38.306814,27.216195 0,-1.305268 13.679994,-6.431014 14.911618,-4.690657 0.613454,0.781462 c -7.737054,7.51449 -17.912818,11.647365 -28.719966,11.647365 -0.166104,0 -0.326545,-9.44e-4 -0.4851,-0.0019 z"
     id="path4"
     inkscape:connector-curvature="0"
     style="fill:#ffffff" /></svg>