<?xml version="1.0" encoding="UTF-8" standalone="no"?>
<svg
   xmlns:dc="http://purl.org/dc/elements/1.1/"
   xmlns:cc="http://creativecommons.org/ns#"
   xmlns:rdf="http://www.w3.org/1999/02/22-rdf-syntax-ns#"
   xmlns:svg="http://www.w3.org/2000/svg"
   xmlns="http://www.w3.org/2000/svg"
   xmlns:sodipodi="http://sodipodi.sourceforge.net/DTD/sodipodi-0.dtd"
   xmlns:inkscape="http://www.inkscape.org/namespaces/inkscape"
   version="1.1"
   x="0px"
   y="0px"
   viewBox="0 0 100 100"
   enable-background="new 0 0 100 100"
   xml:space="preserve"
   id="svg2"
   inkscape:version="0.91 r13725"
   sodipodi:docname="rankings.svg"><metadata
     id="metadata14"><rdf:RDF><cc:Work
         rdf:about=""><dc:format>image/svg+xml</dc:format><dc:type
           rdf:resource="http://purl.org/dc/dcmitype/StillImage" /><dc:title /></cc:Work></rdf:RDF></metadata><defs
     id="defs12" /><sodipodi:namedview
     pagecolor="#ffffff"
     bordercolor="#666666"
     borderopacity="1"
     objecttolerance="10"
     gridtolerance="10"
     guidetolerance="10"
     inkscape:pageopacity="0"
     inkscape:pageshadow="2"
     inkscape:window-width="1920"
     inkscape:window-height="1176"
     id="namedview10"
     showgrid="false"
     inkscape:zoom="6.675088"
     inkscape:cx="11.749173"
     inkscape:cy="45.090287"
     inkscape:window-x="0"
     inkscape:window-y="24"
     inkscape:window-maximized="1"
     inkscape:current-layer="svg2" /><path
     style="fill:#ffffff"
     d="M 22.949219 12.445312 C 22.901219 14.042303 22.891922 15.707119 22.919922 17.412109 C 19.76494 16.223116 16.416655 15.811128 13.513672 16.453125 C 9.2216966 17.397119 6.3075878 20.346979 5.3085938 24.751953 C 4.0036014 30.50292 6.8755228 37.096349 13.396484 43.320312 C 18.534454 48.223284 25.427073 52.302281 32.707031 54.822266 C 35.723013 59.074241 39.585404 62.500996 44.484375 64.583984 C 43.770379 67.192969 41.263043 74.750027 35.205078 79.375 L 50 79.375 L 64.794922 79.375 C 58.735957 74.750027 56.229621 67.192969 55.515625 64.583984 C 60.414596 62.500996 64.277987 59.075241 67.292969 54.822266 C 74.571927 52.303281 81.465546 48.223284 86.603516 43.320312 C 93.124478 37.095349 95.996399 30.50292 94.691406 24.751953 C 93.691412 20.346979 90.778303 17.397119 86.486328 16.453125 C 83.584345 15.811128 80.233107 16.223116 77.078125 17.412109 C 77.105125 15.707119 77.096828 14.042303 77.048828 12.445312 L 50 12.445312 L 22.949219 12.445312 z M 49.855469 18.513672 C 56.90787 18.513672 60.650391 22.687071 60.650391 27.388672 C 60.650391 30.315179 59.451403 32.808781 56.716797 34.248047 C 59.979133 35.879215 61.802734 38.039377 61.802734 42.453125 C 61.802734 46.770922 59.019399 53.486328 50 53.486328 C 41.220478 53.486328 38.197266 47.778626 38.197266 43.125 C 38.197266 41.397881 38.197545 36.887057 43.378906 34.488281 C 40.692273 33.144966 39.253906 30.986698 39.253906 27.820312 C 39.253906 22.015275 43.906507 18.513672 49.855469 18.513672 z M 16.853516 22.429688 C 18.940331 22.510124 21.267496 23.2876 23.271484 24.527344 C 23.87848 31.736302 25.301813 39.265352 27.966797 45.945312 C 24.13182 43.951324 20.610264 41.515421 17.738281 38.773438 C 13.022309 34.269464 10.666457 29.550511 11.439453 26.144531 C 11.89345 24.134543 12.983198 23.005841 14.867188 22.589844 C 15.488934 22.452595 16.15791 22.402875 16.853516 22.429688 z M 83.144531 22.429688 C 83.840136 22.40275 84.509113 22.454798 85.130859 22.591797 C 87.014848 23.007794 88.104597 24.134543 88.558594 26.144531 C 89.33159 29.550511 86.977691 34.270464 82.261719 38.773438 C 79.389736 41.514421 75.86818 43.952277 72.033203 45.947266 C 74.699187 39.267305 76.12252 31.738255 76.728516 24.529297 C 78.732504 23.290304 81.057716 22.510499 83.144531 22.429688 z M 50.287109 23.886719 C 47.264651 23.886719 45.681641 25.612695 45.681641 28.107422 C 45.681641 30.122394 47.170296 32.330078 50.048828 32.330078 C 52.687482 32.330078 54.222656 30.554174 54.222656 28.107422 C 54.222656 25.516744 52.446006 23.886719 50.287109 23.886719 z M 49.904297 37.416016 C 47.457542 37.416016 45.107422 38.999243 45.107422 42.693359 C 45.107422 45.955694 46.978391 48.113281 50.048828 48.113281 C 53.551042 48.113281 54.892578 45.091035 54.892578 42.740234 C 54.892578 40.341458 53.646382 37.416016 49.904297 37.416016 z M 31 83.339844 L 31 91.554688 L 69 91.554688 L 69 83.339844 L 31 83.339844 z "
     id="rect8" /></svg>