<?xml version="1.0" encoding="UTF-8" standalone="no"?>
<svg
   xmlns:dc="http://purl.org/dc/elements/1.1/"
   xmlns:cc="http://creativecommons.org/ns#"
   xmlns:rdf="http://www.w3.org/1999/02/22-rdf-syntax-ns#"
   xmlns:svg="http://www.w3.org/2000/svg"
   xmlns="http://www.w3.org/2000/svg"
   xmlns:sodipodi="http://sodipodi.sourceforge.net/DTD/sodipodi-0.dtd"
   xmlns:inkscape="http://www.inkscape.org/namespaces/inkscape"
   version="1.1"
   x="0px"
   y="0px"
   viewBox="0 0 100 100"
   enable-background="new 0 0 100 100"
   xml:space="preserve"
   id="svg2"
   inkscape:version="0.91 r13725"
   sodipodi:docname="tick1.svg"><metadata
     id="metadata122"><rdf:RDF><cc:Work
         rdf:about=""><dc:format>image/svg+xml</dc:format><dc:type
           rdf:resource="http://purl.org/dc/dcmitype/StillImage" /></cc:Work></rdf:RDF></metadata><defs
     id="defs120" /><sodipodi:namedview
     pagecolor="#ffffff"
     bordercolor="#666666"
     borderopacity="1"
     objecttolerance="10"
     gridtolerance="10"
     guidetolerance="10"
     inkscape:pageopacity="0"
     inkscape:pageshadow="2"
     inkscape:window-width="1920"
     inkscape:window-height="1023"
     id="namedview118"
     showgrid="false"
     inkscape:zoom="2.36"
     inkscape:cx="50"
     inkscape:cy="50"
     inkscape:window-x="0"
     inkscape:window-y="0"
     inkscape:window-maximized="1"
     inkscape:current-layer="svg2" /><g
     id="g4"><rect
       x="-192"
       width="185"
       height="99"
       id="rect6" /><rect
       y="-36"
       width="100"
       height="30"
       id="rect8" /><text
       transform="matrix(1 0 0 1 66 -19.5)"
       fill="#000000"
       font-family="'Helvetica'"
       font-size="2.4"
       id="text10">http://thenounproject.com</text>
<text
       transform="matrix(1 0 0 1 7.166 -24.5)"
       id="text12"><tspan
         x="0"
         y="0"
         fill="#000000"
         font-family="'Helvetica-Bold'"
         font-size="6.1578"
         id="tspan14">The Noun Project</tspan><tspan
         x="1.12"
         y="4.8"
         fill="#000000"
         font-family="'Helvetica-Bold'"
         font-size="4"
         id="tspan16">Icon Template</tspan></text>
<text
       transform="matrix(1 0 0 1 -178.5 10.5)"
       fill="#000000"
       font-family="'Helvetica-Bold'"
       font-size="6.1578"
       id="text18">Reminders</text>
<line
       fill="#000000"
       stroke="#FFFFFF"
       stroke-miterlimit="10"
       x1="8"
       y1="-14.5"
       x2="18"
       y2="-14.5"
       id="line20" /><line
       fill="#000000"
       stroke="#FFFFFF"
       stroke-miterlimit="10"
       x1="-179"
       y1="16.5"
       x2="-162"
       y2="16.5"
       id="line22" /><g
       id="g24"><g
         id="g26"><g
           id="g28"><rect
             x="-170.802"
             y="31.318"
             fill="#000000"
             width="8.721"
             height="8.642"
             id="rect30" /><path
             fill="#000000"
             d="M-164.455,42.312h4.747v-4.703h-4.747V42.312z M-159.266,42.749h-5.63V37.17h5.63V42.749      L-159.266,42.749z M-166.221,44.062h8.279v-8.203h-8.279V44.062L-166.221,44.062z M-157.5,44.5h-9.163v-9.079h9.163V44.5      L-157.5,44.5z"
             id="path32" /><polygon
             fill="#000000"
             points="-166.149,44.133 -166.292,43.991 -158.013,35.787 -157.871,35.929     "
             id="polygon34" /></g></g></g><rect
       x="-179"
       y="58"
       fill="none"
       width="35"
       height="32.5"
       id="rect36" /><text
       transform="matrix(1 0 0 1 -179 60.1572)"
       id="text38"><tspan
         x="0"
         y="0"
         fill="#000000"
         font-family="'Helvetica-Bold'"
         font-size="3"
         id="tspan40">Strokes</tspan><tspan
         x="0"
         y="5"
         fill="#000000"
         font-family="'Helvetica'"
         font-size="2.4"
         id="tspan42">Try to keep strokes at 4px</tspan><tspan
         x="0"
         y="10"
         fill="#000000"
         font-family="'Helvetica'"
         font-size="2.4"
         id="tspan44">Minimum stroke weight is 2px</tspan><tspan
         x="0"
         y="14.5"
         fill="#000000"
         font-family="'Helvetica'"
         font-size="2.4"
         id="tspan46">For thicker strokes use even </tspan><tspan
         x="0"
         y="17.5"
         fill="#000000"
         font-family="'Helvetica'"
         font-size="2.4"
         id="tspan48">numbers: 6px, 8px etc.</tspan><tspan
         x="0"
         y="22"
         fill="#000000"
         font-family="'Helvetica-Bold'"
         font-size="2.4"
         id="tspan50">Remember to expand strokes </tspan><tspan
         x="0"
         y="25"
         fill="#000000"
         font-family="'Helvetica-Bold'"
         font-size="2.4"
         id="tspan52">before saving as an SVG </tspan></text>
<rect
       x="-136.5"
       y="58"
       fill="none"
       width="35"
       height="32.5"
       id="rect54" /><text
       transform="matrix(1 0 0 1 -136.5 60.1572)"
       id="text56"><tspan
         x="0"
         y="0"
         fill="#000000"
         font-family="'Helvetica-Bold'"
         font-size="3"
         id="tspan58">Size</tspan><tspan
         x="0"
         y="5"
         fill="#000000"
         font-family="'Helvetica'"
         font-size="2.4"
         id="tspan60">Cannot be wider or taller than </tspan><tspan
         x="0"
         y="8.5"
         fill="#000000"
         font-family="'Helvetica'"
         font-size="2.4"
         id="tspan62">100px (artboard size)</tspan><tspan
         x="0"
         y="13.5"
         fill="#000000"
         font-family="'Helvetica'"
         font-size="2.4"
         id="tspan64">Scale your icon to fill as much of </tspan><tspan
         x="0"
         y="16.5"
         fill="#000000"
         font-family="'Helvetica'"
         font-size="2.4"
         id="tspan66">the artboard as possible</tspan></text>
<rect
       x="-94"
       y="58"
       fill="none"
       width="35"
       height="32.5"
       id="rect68" /><text
       transform="matrix(1 0 0 1 -94 60.1572)"
       id="text70"><tspan
         x="0"
         y="0"
         fill="#000000"
         font-family="'Helvetica-Bold'"
         font-size="3"
         id="tspan72">Ungroup</tspan><tspan
         x="0"
         y="5"
         fill="#000000"
         font-family="'Helvetica'"
         font-size="2.4"
         id="tspan74">If your design has more than one </tspan><tspan
         x="0"
         y="8"
         fill="#000000"
         font-family="'Helvetica'"
         font-size="2.4"
         id="tspan76">shape, make sure to ungroup</tspan></text>
<rect
       x="-50"
       y="58"
       fill="none"
       width="35"
       height="32.5"
       id="rect78" /><text
       transform="matrix(1 0 0 1 -50 60.1572)"
       id="text80"><tspan
         x="0"
         y="0"
         fill="#000000"
         font-family="'Helvetica-Bold'"
         font-size="3"
         id="tspan82">Save as</tspan><tspan
         x="0"
         y="5"
         fill="#000000"
         font-family="'Helvetica'"
         font-size="2.4"
         id="tspan84">Save as .SVG and make sure </tspan><tspan
         x="0"
         y="8"
         fill="#000000"
         font-family="'Helvetica'"
         font-size="2.4"
         id="tspan86">“Use Artboards” is checked</tspan></text>
<text
       transform="matrix(1.0074 0 0 1 -125.542 30.5933)"
       fill="#000000"
       font-family="'Helvetica'"
       font-size="2.5731"
       id="text88">100px</text>
<text
       transform="matrix(1.0074 0 0 1 -41 39)"
       fill="#000000"
       font-family="'Helvetica-Bold'"
       font-size="5.1462"
       id="text90">.SVG</text>
<rect
       x="-126.514"
       y="34.815"
       fill="#000000"
       width="10.261"
       height="10.185"
       id="rect92" /><rect
       x="-126.477"
       y="31.766"
       fill="#000000"
       width="0.522"
       height="2.337"
       id="rect94" /><rect
       x="-116.812"
       y="31.766"
       fill="#000000"
       width="0.523"
       height="2.337"
       id="rect96" /><rect
       x="-127"
       y="32.337"
       fill="#000000"
       width="11.233"
       height="0.572"
       id="rect98" /><g
       id="g100"><rect
         x="-83.805"
         y="33.844"
         fill="#000000"
         width="10.305"
         height="10.156"
         id="rect102" /><rect
         x="-76.809"
         y="28.707"
         fill="#000000"
         width="3.308"
         height="3.261"
         id="rect104" /></g><rect
       x="-178.5"
       y="22.5"
       fill="#000000"
       stroke="#FFFFFF"
       stroke-miterlimit="10"
       width="30"
       height="30"
       id="rect106" /><rect
       x="-136.5"
       y="22.5"
       fill="#000000"
       stroke="#FFFFFF"
       stroke-miterlimit="10"
       width="30"
       height="30"
       id="rect108" /><rect
       x="-93.5"
       y="22.5"
       fill="#000000"
       stroke="#FFFFFF"
       stroke-miterlimit="10"
       width="30"
       height="30"
       id="rect110" /><rect
       x="-49.5"
       y="22.5"
       fill="#000000"
       stroke="#FFFFFF"
       stroke-miterlimit="10"
       width="30"
       height="30"
       id="rect112" /></g><g
     id="g114"
     transform="matrix(0.73878839,0,0,0.73878839,12.973121,12.894841)"
     style="fill:#49996f;fill-opacity:1"><path
       d="m 96.915,6.877 c -1.656,-1.52 -4.375,-1.536 -6.062,0 L 31.845,61.496 6.993,52.295 C 5.085,51.62 2.907,52.326 1.81,53.931 0.644,55.587 0.745,57.814 2.062,59.386 L 29.33,91.413 C 30.19,92.409 31.424,93 32.722,93 l 0.473,-0.019 c 1.216,-0.133 2.347,-0.758 3.073,-1.703 L 97.387,12.904 c 1.419,-1.823 1.217,-4.473 -0.472,-6.027 z m -64.193,84.636 0,0.019 0,0 0,-0.019 z"
       id="path116"
       inkscape:connector-curvature="0"
       style="fill:#49996f;fill-opacity:1" /></g></svg>