<?xml version="1.0" encoding="UTF-8" standalone="no"?>
<svg
   xmlns:dc="http://purl.org/dc/elements/1.1/"
   xmlns:cc="http://creativecommons.org/ns#"
   xmlns:rdf="http://www.w3.org/1999/02/22-rdf-syntax-ns#"
   xmlns:svg="http://www.w3.org/2000/svg"
   xmlns="http://www.w3.org/2000/svg"
   id="svg2"
   preserveAspectRatio="xMidYMid meet"
   viewBox="0 0 300.000000 300.000000"
   height="300.000000pt"
   width="300.000000pt"
   version="1.0">
  <metadata
     id="metadata13">
    <rdf:RDF>
      <cc:Work
         rdf:about="">
        <dc:format>image/svg+xml</dc:format>
        <dc:type
           rdf:resource="http://purl.org/dc/dcmitype/StillImage" />
        <dc:title></dc:title>
      </cc:Work>
    </rdf:RDF>
  </metadata>
  <defs
     id="defs11" />
  <g
     id="g4"
     stroke="none"
     fill="#64B264"
     transform="translate(0.000000,300.000000) scale(0.100000,-0.100000)">
    <path
       style="fill:#4db788;fill-opacity:1"
       d="M2755 2893 c-34 -18 -78 -56 -220 -192 -56 -53 -123 -116 -150 -140 -52 -45 -298 -276 -470 -441 -55 -53 -124 -119 -154 -146 -30 -27 -68 -62 -85 -79 -49 -47 -643 -604 -718 -672 l-66 -62 -94 40 c-51 23 -106 47 -123 54 -16 8 -84 37 -150 65 -66 28 -129 55 -140 60 -194 86 -237 101 -263 92 -51 -17 -51 -59 0 -142 24 -39 131 -226 160 -280 10 -19 29 -53 41 -75 13 -22 37 -65 54 -95 162 -291 378 -647 415 -685 24 -26 36 -30 79 -30 47 0 54 3 85 40 18 22 34 44 34 49 0 9 277 427 307 463 10 12 34 45 53 73 30 43 166 226 265 356 16 21 126 160 245 307 118 148 237 296 263 330 27 34 52 64 55 67 10 7 161 186 187 221 20 27 201 239 301 354 28 33 81 94 116 136 34 42 91 108 125 148 68 77 81 107 63 141 -30 56 -147 79 -215 43z"
       id="node1"
       class="node" />
  </g>
  <g
     id="g7"
     stroke="none"
     fill="#FFFFFF"
     transform="translate(0.000000,300.000000) scale(0.100000,-0.100000)" />
</svg>
