<?xml version="1.0" encoding="UTF-8" standalone="no"?>
<svg
   xmlns:dc="http://purl.org/dc/elements/1.1/"
   xmlns:cc="http://creativecommons.org/ns#"
   xmlns:rdf="http://www.w3.org/1999/02/22-rdf-syntax-ns#"
   xmlns:svg="http://www.w3.org/2000/svg"
   xmlns="http://www.w3.org/2000/svg"
   xmlns:sodipodi="http://sodipodi.sourceforge.net/DTD/sodipodi-0.dtd"
   xmlns:inkscape="http://www.inkscape.org/namespaces/inkscape"
   viewBox="0 0 100 100"
   version="1.1"
   x="0px"
   y="0px"
   id="svg2"
   inkscape:version="0.91 r13725"
   sodipodi:docname="unknown-group.svg"
   width="100"
   height="100">
  <metadata
     id="metadata12">
    <rdf:RDF>
      <cc:Work
         rdf:about="">
        <dc:format>image/svg+xml</dc:format>
        <dc:type
           rdf:resource="http://purl.org/dc/dcmitype/StillImage" />
        <dc:title></dc:title>
      </cc:Work>
    </rdf:RDF>
  </metadata>
  <defs
     id="defs10" />
  <sodipodi:namedview
     pagecolor="#ffffff"
     bordercolor="#666666"
     borderopacity="1"
     objecttolerance="10"
     gridtolerance="10"
     guidetolerance="10"
     inkscape:pageopacity="0"
     inkscape:pageshadow="2"
     inkscape:window-width="1920"
     inkscape:window-height="1176"
     id="namedview8"
     showgrid="false"
     inkscape:zoom="7.375"
     inkscape:cx="62.283713"
     inkscape:cy="0.84904718"
     inkscape:window-x="0"
     inkscape:window-y="24"
     inkscape:window-maximized="1"
     inkscape:current-layer="svg2" />
  <rect
     style="color:#000000;clip-rule:nonzero;display:inline;overflow:visible;visibility:visible;opacity:1;isolation:auto;mix-blend-mode:normal;color-interpolation:sRGB;color-interpolation-filters:linearRGB;solid-color:#000000;solid-opacity:1;fill:#eeeeee;fill-opacity:1;fill-rule:nonzero;stroke:none;stroke-width:6;stroke-linecap:round;stroke-linejoin:round;stroke-miterlimit:4;stroke-dasharray:none;stroke-dashoffset:0;stroke-opacity:1;color-rendering:auto;image-rendering:auto;shape-rendering:auto;text-rendering:auto;enable-background:accumulate"
     id="rect3340"
     width="100"
     height="100"
     x="0"
     y="0"
     ry="0" />
  <g
     style="fill:#cccccc;fill-opacity:1"
     transform="matrix(0.79999515,0,0,0.79999515,10.000243,2.9714861)"
     id="g3356">
    <path
       style="fill:#cccccc;fill-opacity:1"
       d="m 90.702,44.706999 c -3.131,0 -5.673,2.541 -5.673,5.661 0,3.119 2.542,5.661 5.673,5.661 3.119,0 5.66,-2.542 5.66,-5.661 0,-3.12 -2.541,-5.661 -5.66,-5.661 z"
       id="path4"
       inkscape:connector-curvature="0" />
    <path
       style="fill:#cccccc;fill-opacity:1"
       d="m 9.31,44.706999 c -3.131,0 -5.673,2.541 -5.673,5.661 0,3.119 2.542,5.661 5.673,5.661 3.119,0 5.661,-2.542 5.661,-5.661 0,-3.12 -2.542,-5.661 -5.661,-5.661 z"
       id="path6-9"
       inkscape:connector-curvature="0" />
    <path
       style="fill:#cccccc;fill-opacity:1"
       d="m 73.853,34.408999 c -4.648,0 -8.418,3.782 -8.418,8.431 0,4.643 3.77,8.419 8.418,8.419 4.649,0 8.431,-3.776 8.431,-8.419 -0.001,-4.649 -3.782,-8.431 -8.431,-8.431 z"
       id="path8"
       inkscape:connector-curvature="0" />
    <path
       style="fill:#cccccc;fill-opacity:1"
       d="m 100,85.642999 -9.599,0 0,-17.668 c 0,-3.041 -0.892,-5.859 -2.325,-8.31 0.844,-0.247 1.711,-0.422 2.626,-0.422 5.119,0 9.298,4.179 9.298,9.31 l 0,17.09 z"
       id="path10"
       inkscape:connector-curvature="0" />
    <path
       style="fill:#cccccc;fill-opacity:1"
       d="m 26.147,34.408999 c -4.649,0 -8.431,3.782 -8.431,8.431 0,4.643 3.781,8.419 8.431,8.419 4.637,0 8.418,-3.776 8.418,-8.419 0,-4.649 -3.781,-8.431 -8.418,-8.431 z"
       id="path12"
       inkscape:connector-curvature="0" />
    <path
       style="fill:#cccccc;fill-opacity:1"
       d="m 9.31,59.242999 c 0.915,0 1.771,0.175 2.613,0.422 -1.445,2.451 -2.324,5.269 -2.324,8.31 l 0,17.668 -9.599,0 0,-17.09 c 0,-5.13 4.179,-9.31 9.31,-9.31 z"
       id="path14"
       inkscape:connector-curvature="0" />
    <path
       style="fill:#cccccc;fill-opacity:1"
       d="m 49.994,17.571999 c -6.865,0 -12.453,5.588 -12.453,12.453 0,6.871 5.588,12.465 12.453,12.465 6.865,0 12.465,-5.594 12.465,-12.465 0,-6.865 -5.6,-12.453 -12.465,-12.453 z"
       id="path16"
       inkscape:connector-curvature="0" />
    <path
       style="fill:#cccccc;fill-opacity:1"
       d="m 87.317,92.218999 -14.705,0 0,-26.881 c 0,-3.697 -0.976,-7.136 -2.554,-10.219 1.205,-0.355 2.47,-0.608 3.794,-0.608 7.419,0 13.465,6.04 13.465,13.465 l 0,24.243 z"
       id="path18"
       inkscape:connector-curvature="0" />
    <path
       style="fill:#cccccc;fill-opacity:1"
       d="m 27.376,65.337999 0,26.882 -14.694,0 0,-24.245 c 0,-7.425 6.034,-13.465 13.465,-13.465 1.324,0 2.577,0.253 3.781,0.608 -1.576,3.084 -2.552,6.522 -2.552,10.22 z"
       id="path20"
       inkscape:connector-curvature="0" />
    <path
       style="fill:#cccccc;fill-opacity:1"
       d="m 30.459,99.999999 39.07,0 0,-34.662 c 0,-10.773 -8.769,-19.535 -19.535,-19.535 -10.779,0 -19.535,8.762 -19.535,19.535 l 0,34.662 z"
       id="path22"
       inkscape:connector-curvature="0" />
  </g>
  <path
     id="path6"
     style="color:#000000;font-style:normal;font-variant:normal;font-weight:normal;font-stretch:normal;font-size:medium;line-height:normal;font-family:sans-serif;text-indent:0;text-align:start;text-decoration:none;text-decoration-line:none;text-decoration-style:solid;text-decoration-color:#000000;letter-spacing:normal;word-spacing:normal;text-transform:none;direction:ltr;block-progression:tb;writing-mode:lr-tb;baseline-shift:baseline;text-anchor:start;white-space:normal;clip-rule:nonzero;display:inline;overflow:visible;visibility:visible;opacity:1;isolation:auto;mix-blend-mode:normal;color-interpolation:sRGB;color-interpolation-filters:linearRGB;solid-color:#000000;solid-opacity:1;fill:#ffffff;fill-opacity:1;fill-rule:nonzero;stroke:none;stroke-width:1;stroke-linecap:round;stroke-linejoin:round;stroke-miterlimit:4;stroke-dasharray:none;stroke-dashoffset:0;stroke-opacity:1;color-rendering:auto;image-rendering:auto;shape-rendering:auto;text-rendering:auto;enable-background:accumulate"
     d="m 50.023582,75.126652 a 1.5907844,1.5907844 0 0 0 -1.590785,1.590785 1.5907844,1.5907844 0 0 0 1.590785,1.590784 1.5907844,1.5907844 0 0 0 1.590784,-1.590784 1.5907844,1.5907844 0 0 0 -1.590784,-1.590785 z M 49.364897,46.330969 c -1.202551,0.09475 -2.389254,0.463147 -3.467412,1.112306 -2.875179,1.73141 -4.360954,5.09916 -3.69733,8.388902 a 1.591007,1.591007 0 0 0 3.119428,-0.627615 c -0.399941,-1.982752 0.485627,-3.989786 2.218398,-5.03334 1.732792,-1.043555 3.921728,-0.889418 5.486963,0.391482 1.565267,1.281217 2.146749,3.39542 1.466504,5.300543 -0.680127,1.904805 -2.470161,3.169459 -4.492722,3.169141 a 1.5909434,1.5909434 0 0 0 -1.565929,1.95741 l 0,9.482567 a 1.5909434,1.5909434 0 1 0 3.181569,0 l 0,-8.438615 c 2.67396,-0.55791 4.928929,-2.459824 5.872233,-5.101695 1.128591,-3.160569 0.142652,-6.697957 -2.454533,-8.823882 -1.623242,-1.328304 -3.662916,-1.935117 -5.667169,-1.777204 z"
     inkscape:connector-curvature="0" />
</svg>
