<?xml version="1.0" encoding="UTF-8" standalone="no"?>
<svg
   xmlns:dc="http://purl.org/dc/elements/1.1/"
   xmlns:cc="http://creativecommons.org/ns#"
   xmlns:rdf="http://www.w3.org/1999/02/22-rdf-syntax-ns#"
   xmlns:svg="http://www.w3.org/2000/svg"
   xmlns="http://www.w3.org/2000/svg"
   xmlns:sodipodi="http://sodipodi.sourceforge.net/DTD/sodipodi-0.dtd"
   xmlns:inkscape="http://www.inkscape.org/namespaces/inkscape"
   viewBox="0 0 100 100"
   version="1.1"
   x="0px"
   y="0px"
   id="svg2"
   inkscape:version="0.91 r13725"
   sodipodi:docname="unknown-user.svg"
   width="100"
   height="100">
  <metadata
     id="metadata12">
    <rdf:RDF>
      <cc:Work
         rdf:about="">
        <dc:format>image/svg+xml</dc:format>
        <dc:type
           rdf:resource="http://purl.org/dc/dcmitype/StillImage" />
        <dc:title />
      </cc:Work>
    </rdf:RDF>
  </metadata>
  <defs
     id="defs10" />
  <sodipodi:namedview
     pagecolor="#ffffff"
     bordercolor="#666666"
     borderopacity="1"
     objecttolerance="10"
     gridtolerance="10"
     guidetolerance="10"
     inkscape:pageopacity="0"
     inkscape:pageshadow="2"
     inkscape:window-width="1920"
     inkscape:window-height="1176"
     id="namedview8"
     showgrid="false"
     inkscape:zoom="7.375"
     inkscape:cx="33.131171"
     inkscape:cy="49.662607"
     inkscape:window-x="0"
     inkscape:window-y="24"
     inkscape:window-maximized="1"
     inkscape:current-layer="svg2" />
  <rect
     style="color:#000000;clip-rule:nonzero;display:inline;overflow:visible;visibility:visible;opacity:1;isolation:auto;mix-blend-mode:normal;color-interpolation:sRGB;color-interpolation-filters:linearRGB;solid-color:#000000;solid-opacity:1;fill:#eeeeee;fill-opacity:1;fill-rule:nonzero;stroke:none;stroke-width:6;stroke-linecap:round;stroke-linejoin:round;stroke-miterlimit:4;stroke-dasharray:none;stroke-dashoffset:0;stroke-opacity:1;color-rendering:auto;image-rendering:auto;shape-rendering:auto;text-rendering:auto;enable-background:accumulate"
     id="rect3340"
     width="100"
     height="100"
     x="0"
     y="0"
     ry="0" />
  <path
     sodipodi:nodetypes="ccccscccccccccccccccccccccccccccccccsccccccccccccccccccccccccccccccc"
     inkscape:connector-curvature="0"
     style="fill:#cccccc;fill-opacity:1"
     id="path4-8"
     d="m 75.267355,17.582848 -0.18112,-0.182248 -3.89473,-1.704366 -11.604309,0 C 58.176454,14.842364 54.41785,12.8545 50.00225,12.8545 c -4.4156,0 -8.176454,1.987864 -9.587196,2.841734 l -11.603184,0 -3.899228,1.704366 -19.9123872,19.985511 13.1106752,13.12305 7.937955,-7.93683 1.693116,-1.693114 0,44.912915 0,1.353368 44.520494,0 0,-1.353368 0,-44.907291 1.68974,1.68974 7.93571,7.93458 13.1118,-13.12305 z m 15.90966,19.801013 -2.32873,2.330987 -14.89717,-14.896041 0,-4.722723 z M 53.044232,25.118055 c 1.679616,-0.794245 3.212982,-1.599741 4.462851,-2.513235 l 0,61.833945 -4.462851,0 z m 4.900473,-7.247209 c -0.08888,0.339749 -0.232874,0.663747 -0.437622,0.976495 -1.01587,1.558116 -3.47848,2.859734 -7.510458,4.693474 -4.027478,-1.81349 -6.486713,-3.106108 -7.503708,-4.670974 -0.206998,-0.318374 -0.350998,-0.647996 -0.440997,-0.994495 1.329743,-0.76612 4.448224,-2.315236 7.951455,-2.315236 3.496481,0 6.610462,1.543491 7.94133,2.310736 z m -31.896944,2.224113 0,4.723848 L 11.15172,39.714848 8.8229838,37.383861 Z m -7.935706,26.586973 -2.656109,-2.659484 10.592939,-10.592939 0,5.31447 z m 14.025296,-28.280089 4.265976,0 0,66.036922 -4.265976,0 z m 10.355566,4.231102 c 1.249869,0.911244 2.783235,1.711115 4.462851,2.497486 l 0,59.308334 -4.462851,0 z m 21.103756,-4.231102 4.265976,0 0,66.036922 -4.265976,0 z m 18.290142,28.280089 -7.9357,-7.934579 0,-5.31672 10.59181,10.591815 z" />
  <path
     id="path6"
     style="color:#000000;font-style:normal;font-variant:normal;font-weight:normal;font-stretch:normal;font-size:medium;line-height:normal;font-family:sans-serif;text-indent:0;text-align:start;text-decoration:none;text-decoration-line:none;text-decoration-style:solid;text-decoration-color:#000000;letter-spacing:normal;word-spacing:normal;text-transform:none;direction:ltr;block-progression:tb;writing-mode:lr-tb;baseline-shift:baseline;text-anchor:start;white-space:normal;clip-rule:nonzero;display:inline;overflow:visible;visibility:visible;opacity:1;isolation:auto;mix-blend-mode:normal;color-interpolation:sRGB;color-interpolation-filters:linearRGB;solid-color:#000000;solid-opacity:1;fill:#ffffff;fill-opacity:1;fill-rule:nonzero;stroke:none;stroke-width:1;stroke-linecap:round;stroke-linejoin:round;stroke-miterlimit:4;stroke-dasharray:none;stroke-dashoffset:0;stroke-opacity:1;color-rendering:auto;image-rendering:auto;shape-rendering:auto;text-rendering:auto;enable-background:accumulate"
     d="m 50.028374,66.133274 a 1.8671343,1.8671343 0 0 0 -1.867135,1.867135 1.8671343,1.8671343 0 0 0 1.867135,1.867134 1.8671343,1.8671343 0 0 0 1.867134,-1.867134 1.8671343,1.8671343 0 0 0 -1.867134,-1.867135 z M 49.255263,32.335226 c -1.411457,0.11121 -2.804314,0.543604 -4.069768,1.305535 -3.374653,2.032189 -5.118536,5.984982 -4.339628,9.846216 A 1.8673956,1.8673956 0 0 0 44.5072,42.750333 c -0.469419,-2.327194 0.56999,-4.682889 2.603776,-5.907728 2.033812,-1.224841 4.603008,-1.043927 6.440155,0.45949 1.837184,1.503789 2.51968,3.98527 1.721264,6.221349 -0.798279,2.235707 -2.899276,3.720055 -5.273195,3.719682 a 1.8673209,1.8673209 0 0 0 -1.837961,2.29745 l 0,11.129872 a 1.8673209,1.8673209 0 1 0 3.734269,0 l 0,-9.904565 c 3.138478,-0.65483 5.785179,-2.887143 6.892353,-5.987958 1.324649,-3.709621 0.167434,-7.861521 -2.880933,-10.356761 -1.90523,-1.559056 -4.299235,-2.271284 -6.651665,-2.085938 z"
     inkscape:connector-curvature="0" />
</svg>
