<?xml version="1.0" encoding="UTF-8" standalone="no"?>
<svg
   xmlns:dc="http://purl.org/dc/elements/1.1/"
   xmlns:cc="http://creativecommons.org/ns#"
   xmlns:rdf="http://www.w3.org/1999/02/22-rdf-syntax-ns#"
   xmlns:svg="http://www.w3.org/2000/svg"
   xmlns="http://www.w3.org/2000/svg"
   xmlns:sodipodi="http://sodipodi.sourceforge.net/DTD/sodipodi-0.dtd"
   xmlns:inkscape="http://www.inkscape.org/namespaces/inkscape"
   width="300"
   height="100"
   viewBox="0 0 300 100"
   version="1.1"
   preserveAspectRatio="xMidYMid"
   id="svg2"
   inkscape:version="0.91 r13725"
   sodipodi:docname="yahoo.svg">
  <metadata
     id="metadata306">
    <rdf:RDF>
      <cc:Work
         rdf:about="">
        <dc:format>image/svg+xml</dc:format>
        <dc:type
           rdf:resource="http://purl.org/dc/dcmitype/StillImage" />
        <dc:title></dc:title>
      </cc:Work>
    </rdf:RDF>
  </metadata>
  <sodipodi:namedview
     pagecolor="#ffffff"
     bordercolor="#666666"
     borderopacity="1"
     objecttolerance="10"
     gridtolerance="10"
     guidetolerance="10"
     inkscape:pageopacity="0"
     inkscape:pageshadow="2"
     inkscape:window-width="1920"
     inkscape:window-height="1176"
     id="namedview304"
     showgrid="false"
     inkscape:zoom="0.72070312"
     inkscape:cx="256"
     inkscape:cy="59.5"
     inkscape:window-x="0"
     inkscape:window-y="24"
     inkscape:window-maximized="1"
     inkscape:current-layer="svg2" />
  <defs
     id="defs4">
    <linearGradient
       x1="1004.7994"
       y1="45.201668"
       x2="1034.8105"
       y2="5.3183041"
       id="linearGradient-1"
       gradientTransform="scale(0.49057155,2.0384386)"
       gradientUnits="userSpaceOnUse">
      <stop
         stop-color="#210045"
         offset="0%"
         id="stop7" />
      <stop
         stop-color="#430085"
         offset="59.415621%"
         id="stop9" />
      <stop
         stop-color="#5000B2"
         offset="100%"
         id="stop11" />
    </linearGradient>
    <linearGradient
       x1="163.61732"
       y1="11.422129"
       x2="224.41718"
       y2="75.354553"
       id="linearGradient-2"
       gradientTransform="scale(0.71790949,1.3929332)"
       gradientUnits="userSpaceOnUse">
      <stop
         stop-color="#5500BD"
         offset="0%"
         id="stop14" />
      <stop
         stop-color="#5000AC"
         offset="100%"
         id="stop16" />
    </linearGradient>
    <linearGradient
       x1="209.60324"
       y1="57.714184"
       x2="218.16493"
       y2="56.270309"
       id="linearGradient-3"
       gradientTransform="scale(0.6641272,1.5057356)"
       gradientUnits="userSpaceOnUse">
      <stop
         stop-color="#2A005A"
         offset="0%"
         id="stop19" />
      <stop
         stop-color="#210046"
         offset="100%"
         id="stop21" />
    </linearGradient>
    <linearGradient
       x1="129.66512"
       y1="71.165062"
       x2="174.5443"
       y2="19.206514"
       id="linearGradient-4"
       gradientTransform="scale(0.66927656,1.4941506)"
       gradientUnits="userSpaceOnUse">
      <stop
         stop-color="#21004E"
         offset="0%"
         id="stop24" />
      <stop
         stop-color="#39007F"
         offset="100%"
         id="stop26" />
    </linearGradient>
    <linearGradient
       x1="70.778679"
       y1="37.309971"
       x2="77.711479"
       y2="40.255424"
       id="linearGradient-5"
       gradientTransform="scale(0.84433243,1.1843676)"
       gradientUnits="userSpaceOnUse">
      <stop
         stop-color="#1B0041"
         offset="0%"
         id="stop29" />
      <stop
         stop-color="#21004F"
         offset="100%"
         id="stop31" />
    </linearGradient>
    <linearGradient
       x1="99.42643"
       y1="0.14986454"
       x2="59.772247"
       y2="51.719357"
       id="linearGradient-6"
       gradientTransform="scale(0.78865002,1.2679896)"
       gradientUnits="userSpaceOnUse">
      <stop
         stop-color="#5500BD"
         offset="0%"
         id="stop34" />
      <stop
         stop-color="#47008D"
         offset="100%"
         id="stop36" />
    </linearGradient>
    <linearGradient
       x1="20.982328"
       y1="0.59774631"
       x2="62.054325"
       y2="49.758198"
       id="linearGradient-7"
       gradientTransform="scale(0.75722814,1.320606)"
       gradientUnits="userSpaceOnUse">
      <stop
         stop-color="#5100B2"
         offset="0%"
         id="stop39" />
      <stop
         stop-color="#5500BD"
         offset="100%"
         id="stop41" />
    </linearGradient>
    <linearGradient
       x1="41.775486"
       y1="46.995735"
       x2="48.630154"
       y2="43.927315"
       id="linearGradient-8"
       gradientTransform="scale(0.82014979,1.2192895)"
       gradientUnits="userSpaceOnUse">
      <stop
         stop-color="#27005D"
         stop-opacity="0.98039216"
         offset="0%"
         id="stop44" />
      <stop
         stop-color="#2B005D"
         offset="31.76744%"
         id="stop46" />
      <stop
         stop-color="#280055"
         offset="59.756237%"
         id="stop48" />
      <stop
         stop-color="#24004D"
         offset="80.877602%"
         id="stop50" />
      <stop
         stop-color="#230049"
         offset="100%"
         id="stop52" />
    </linearGradient>
    <linearGradient
       x1="105.81642"
       y1="29.420601"
       x2="120.84424"
       y2="53.236031"
       id="linearGradient-9"
       gradientTransform="scale(0.44853431,2.2294838)"
       gradientUnits="userSpaceOnUse">
      <stop
         stop-color="#5500BD"
         offset="0%"
         id="stop55" />
      <stop
         stop-color="#5300B5"
         offset="100%"
         id="stop57" />
    </linearGradient>
    <linearGradient
       x1="121.98344"
       y1="24.902355"
       x2="121.98344"
       y2="44.701"
       id="linearGradient-10"
       gradientTransform="scale(0.37684405,2.6536176)"
       gradientUnits="userSpaceOnUse">
      <stop
         stop-color="#210045"
         offset="0%"
         id="stop60" />
      <stop
         stop-color="#25004D"
         offset="25%"
         id="stop62" />
      <stop
         stop-color="#2B005C"
         offset="50%"
         id="stop64" />
      <stop
         stop-color="#340071"
         offset="74.854362%"
         id="stop66" />
      <stop
         stop-color="#3E0088"
         offset="100%"
         id="stop68" />
    </linearGradient>
    <linearGradient
       x1="103.65502"
       y1="73.605591"
       x2="167.74446"
       y2="11.19027"
       id="linearGradient-11"
       gradientTransform="scale(0.69746437,1.433765)"
       gradientUnits="userSpaceOnUse">
      <stop
         stop-color="#4D00A1"
         offset="0%"
         id="stop71" />
      <stop
         stop-color="#5200B4"
         offset="100%"
         id="stop73" />
    </linearGradient>
    <linearGradient
       x1="29.67923"
       y1="236.67551"
       x2="45.164124"
       y2="236.67551"
       id="linearGradient-12"
       gradientTransform="scale(3.126598,0.31983645)"
       gradientUnits="userSpaceOnUse">
      <stop
         stop-color="#6700E8"
         offset="0%"
         id="stop76" />
      <stop
         stop-color="#6700E8"
         offset="50.604492%"
         id="stop78" />
      <stop
         stop-color="#6700E8"
         offset="100%"
         id="stop80" />
    </linearGradient>
    <linearGradient
       x1="515.11578"
       y1="18.243853"
       x2="538.14154"
       y2="18.243853"
       id="linearGradient-13"
       gradientTransform="scale(0.341565,2.9277004)"
       gradientUnits="userSpaceOnUse">
      <stop
         stop-color="#5A00C9"
         offset="0%"
         id="stop83" />
      <stop
         stop-color="#4F00A8"
         offset="100%"
         id="stop85" />
    </linearGradient>
    <linearGradient
       x1="583.07098"
       y1="4.1536536"
       x2="610.12695"
       y2="4.1536536"
       id="linearGradient-14"
       gradientTransform="scale(0.28867517,3.4641012)"
       gradientUnits="userSpaceOnUse">
      <stop
         stop-color="#390080"
         offset="0%"
         id="stop88" />
      <stop
         stop-color="#31006E"
         offset="50%"
         id="stop90" />
      <stop
         stop-color="#250056"
         offset="100%"
         id="stop92" />
    </linearGradient>
    <linearGradient
       x1="684.05768"
       y1="35.409275"
       x2="707.72742"
       y2="35.409275"
       id="linearGradient-15"
       gradientTransform="scale(0.341565,2.9277004)"
       gradientUnits="userSpaceOnUse">
      <stop
         stop-color="#3F008B"
         offset="0%"
         id="stop95" />
      <stop
         stop-color="#220050"
         offset="100%"
         id="stop97" />
    </linearGradient>
    <linearGradient
       x1="48.025318"
       y1="217.12949"
       x2="65.873291"
       y2="217.12949"
       id="linearGradient-16"
       gradientTransform="scale(3.6672927,0.27268072)"
       gradientUnits="userSpaceOnUse">
      <stop
         stop-color="#6700E8"
         offset="0%"
         id="stop100" />
      <stop
         stop-color="#6700E8"
         offset="50%"
         id="stop102" />
      <stop
         stop-color="#6700E8"
         offset="100%"
         id="stop104" />
    </linearGradient>
    <linearGradient
       x1="327.46234"
       y1="17.909451"
       x2="276.45676"
       y2="90.80291"
       id="linearGradient-17"
       gradientTransform="scale(0.98500171,1.0152267)"
       gradientUnits="userSpaceOnUse">
      <stop
         stop-color="#1C0044"
         offset="0%"
         id="stop107" />
      <stop
         stop-color="#2F0065"
         offset="10.005283%"
         id="stop109" />
      <stop
         stop-color="#34006D"
         offset="20.479059%"
         id="stop111" />
      <stop
         stop-color="#3B007A"
         offset="30.000001%"
         id="stop113" />
      <stop
         stop-color="#3C007A"
         offset="40.000001%"
         id="stop115" />
      <stop
         stop-color="#490096"
         offset="50%"
         id="stop117" />
      <stop
         stop-color="#5000AB"
         offset="60.000002%"
         id="stop119" />
      <stop
         stop-color="#5400BA"
         offset="70.02604%"
         id="stop121" />
      <stop
         stop-color="#5500BC"
         offset="80.312496%"
         id="stop123" />
      <stop
         stop-color="#5700C2"
         offset="89.999998%"
         id="stop125" />
      <stop
         stop-color="#5C00CE"
         offset="100%"
         id="stop127" />
    </linearGradient>
    <linearGradient
       x1="263.03491"
       y1="99.493462"
       x2="324.40005"
       y2="18.751904"
       id="linearGradient-18"
       gradientTransform="scale(1.0251948,0.97542436)"
       gradientUnits="userSpaceOnUse">
      <stop
         stop-color="#1B0041"
         offset="0%"
         id="stop130" />
      <stop
         stop-color="#1B0041"
         offset="10.005283%"
         id="stop132" />
      <stop
         stop-color="#1B0041"
         offset="20.479059%"
         id="stop134" />
      <stop
         stop-color="#240052"
         offset="30.000001%"
         id="stop136" />
      <stop
         stop-color="#32006A"
         offset="40.000001%"
         id="stop138" />
      <stop
         stop-color="#3D007D"
         offset="50%"
         id="stop140" />
      <stop
         stop-color="#490098"
         offset="60.000002%"
         id="stop142" />
      <stop
         stop-color="#4F00A8"
         offset="70.02604%"
         id="stop144" />
      <stop
         stop-color="#5500BC"
         offset="80.312496%"
         id="stop146" />
      <stop
         stop-color="#5700C2"
         offset="89.999998%"
         id="stop148" />
      <stop
         stop-color="#6000DA"
         offset="100%"
         id="stop150" />
    </linearGradient>
    <linearGradient
       x1="430.7128"
       y1="10.045381"
       x2="383.71841"
       y2="98.980804"
       id="linearGradient-19"
       gradientTransform="scale(1.0009816,0.99901932)"
       gradientUnits="userSpaceOnUse">
      <stop
         stop-color="#1E0046"
         offset="0%"
         id="stop153" />
      <stop
         stop-color="#2D0061"
         offset="10.005283%"
         id="stop155" />
      <stop
         stop-color="#33006B"
         offset="20.479059%"
         id="stop157" />
      <stop
         stop-color="#400082"
         offset="30.000001%"
         id="stop159" />
      <stop
         stop-color="#490096"
         offset="40.000001%"
         id="stop161" />
      <stop
         stop-color="#5000AC"
         offset="50%"
         id="stop163" />
      <stop
         stop-color="#5500BD"
         offset="60.000002%"
         id="stop165" />
      <stop
         stop-color="#4F00A8"
         offset="70.02604%"
         id="stop167" />
      <stop
         stop-color="#5500BC"
         offset="80.312496%"
         id="stop169" />
      <stop
         stop-color="#5700C2"
         offset="89.999998%"
         id="stop171" />
      <stop
         stop-color="#6000DA"
         offset="100%"
         id="stop173" />
    </linearGradient>
    <linearGradient
       x1="368.61755"
       y1="109.54012"
       x2="425.84979"
       y2="10.513619"
       id="linearGradient-20"
       gradientTransform="scale(1.0424888,0.95924296)"
       gradientUnits="userSpaceOnUse">
      <stop
         stop-color="#1B0041"
         offset="0%"
         id="stop176" />
      <stop
         stop-color="#1B0041"
         offset="10.005283%"
         id="stop178" />
      <stop
         stop-color="#1B0041"
         offset="20.479059%"
         id="stop180" />
      <stop
         stop-color="#240052"
         offset="30.000001%"
         id="stop182" />
      <stop
         stop-color="#32006A"
         offset="40.000001%"
         id="stop184" />
      <stop
         stop-color="#3D007D"
         offset="50%"
         id="stop186" />
      <stop
         stop-color="#490098"
         offset="60.000002%"
         id="stop188" />
      <stop
         stop-color="#4F00A8"
         offset="70.02604%"
         id="stop190" />
      <stop
         stop-color="#5500BC"
         offset="80.312496%"
         id="stop192" />
      <stop
         stop-color="#5700C2"
         offset="89.999998%"
         id="stop194" />
      <stop
         stop-color="#6000DA"
         offset="100%"
         id="stop196" />
    </linearGradient>
    <radialGradient
       cx="478.65964"
       cy="109.17914"
       fx="478.65964"
       fy="109.17914"
       r="12.516337"
       id="radialGradient-21"
       gradientTransform="scale(1.0205405,0.97987288)"
       gradientUnits="userSpaceOnUse">
      <stop
         stop-color="#6000D8"
         offset="0%"
         id="stop199" />
      <stop
         stop-color="#5C00CD"
         offset="20.885758%"
         id="stop201" />
      <stop
         stop-color="#5500BE"
         offset="37.415123%"
         id="stop203" />
      <stop
         stop-color="#2D0062"
         offset="72.099608%"
         id="stop205" />
      <stop
         stop-color="#210045"
         offset="100%"
         id="stop207" />
    </radialGradient>
    <linearGradient
       x1="1115.5239"
       y1="40.371395"
       x2="1142.2992"
       y2="5.0551367"
       id="linearGradient-22"
       gradientTransform="scale(0.43721571,2.2872005)"
       gradientUnits="userSpaceOnUse">
      <stop
         stop-color="#47008D"
         offset="0%"
         id="stop210" />
      <stop
         stop-color="#5100B3"
         offset="100%"
         id="stop212" />
    </linearGradient>
    <linearGradient
       x1="836.76093"
       y1="22.431293"
       x2="863.84595"
       y2="22.431293"
       id="linearGradient-23"
       gradientTransform="scale(0.28867517,3.4641012)"
       gradientUnits="userSpaceOnUse">
      <stop
         stop-color="#5500BD"
         offset="0%"
         id="stop215" />
      <stop
         stop-color="#5200B2"
         offset="100%"
         id="stop217" />
    </linearGradient>
    <radialGradient
       cx="471.49786"
       cy="6.3761353"
       fx="471.49786"
       fy="6.3761353"
       r="7.112237"
       id="radialGradient-24"
       gradientTransform="scale(1.0698845,0.93468037)"
       gradientUnits="userSpaceOnUse">
      <stop
         stop-color="#6700E8"
         offset="0%"
         id="stop220" />
      <stop
         stop-color="#5C00CE"
         offset="39.935982%"
         id="stop222" />
      <stop
         stop-color="#5600BF"
         stop-opacity="0.04504504"
         offset="70.123935%"
         id="stop224" />
      <stop
         stop-color="#220047"
         stop-opacity="0"
         offset="100%"
         id="stop226" />
    </radialGradient>
    <radialGradient
       cx="478.65964"
       cy="109.17914"
       fx="478.65964"
       fy="109.17914"
       r="12.516337"
       id="radialGradient-21-0"
       gradientTransform="scale(1.0205405,0.97987288)"
       gradientUnits="userSpaceOnUse">
      <stop
         stop-color="#6000D8"
         offset="0%"
         id="stop199-6" />
      <stop
         stop-color="#5C00CD"
         offset="20.885758%"
         id="stop201-3" />
      <stop
         stop-color="#5500BE"
         offset="37.415123%"
         id="stop203-0" />
      <stop
         stop-color="#2D0062"
         offset="72.099608%"
         id="stop205-3" />
      <stop
         stop-color="#210045"
         offset="100%"
         id="stop207-4" />
    </radialGradient>
    <radialGradient
       cx="471.49786"
       cy="6.3761353"
       fx="471.49786"
       fy="6.3761353"
       r="7.112237"
       id="radialGradient-24-2"
       gradientTransform="scale(1.0698845,0.93468037)"
       gradientUnits="userSpaceOnUse">
      <stop
         stop-color="#6700E8"
         offset="0%"
         id="stop220-9" />
      <stop
         stop-color="#5C00CE"
         offset="39.935982%"
         id="stop222-9" />
      <stop
         stop-color="#5600BF"
         stop-opacity="0.04504504"
         offset="70.123935%"
         id="stop224-8" />
      <stop
         stop-color="#220047"
         stop-opacity="0"
         offset="100%"
         id="stop226-1" />
    </radialGradient>
  </defs>
  <g
     id="g228"
     transform="matrix(0.43032972,0,0,0.43032972,39.835593,24.34817)"
     style="fill:#ffffff">
    <path
       d="m 505.20087,1.6219904 c 3.92274,0.6558771 6.54313,3.0570701 6.54313,7.1911731 0,1.3682125 -0.5637,3.2947205 -0.94071,4.9230335 -2.62845,11.586534 -12.89336,52.525169 -17.21494,79.850302 l -3.97657,-3.976576 12.65632,-84.0523217 2.93277,-3.9356109 z"
       id="path230"
       inkscape:connector-curvature="0"
       style="fill:#ffffff" />
    <path
       d="m 249.40365,12.745933 c -5.29742,1.268541 -10.499,1.233694 -15.61242,0 l 8.11846,8.430704 7.49396,-8.430704 z"
       id="path232"
       inkscape:connector-curvature="0"
       style="fill:#ffffff" />
    <path
       d="m 168.24562,12.745933 c 5.29742,1.268541 10.499,1.233694 15.61242,0 l -8.11845,8.430704 -7.49397,-8.430704 z"
       id="path234"
       inkscape:connector-curvature="0"
       style="fill:#ffffff" />
    <path
       d="m 122.42197,12.712991 c 11.97209,30.298987 30.81294,76.159805 40.20074,93.687929 l -13.89771,-4.24677 -34.38849,-85.99884 8.08546,-3.442319 z"
       id="path236"
       inkscape:connector-curvature="0"
       style="fill:#ffffff" />
    <path
       d="m 111.53597,12.710554 c 3.82352,1.280937 6.99485,1.359467 10.88707,0 l -7.73775,4.753264 -3.14932,-4.753264 z"
       id="path238"
       inkscape:connector-curvature="0"
       style="fill:#ffffff" />
    <path
       d="m 117.03445,16.017326 35.04056,85.939054 c -2.07321,2.24531 -2.99775,3.42346 -5.01349,4.4738 -10.15626,-26.158764 -21.06308,-52.324083 -30.3032,-78.145052 l -4.56125,-7.732987 4.83738,-4.534815 z"
       id="path240"
       inkscape:connector-curvature="0"
       style="fill:#ffffff" />
    <path
       d="m 86.897766,106.39755 -10.344448,-3.6638 36.424342,-85.460217 4.05924,-1.255019 0,12.652083 C 111.37311,45.013238 96.999629,80.869903 86.897766,106.39755 l 0,0 z"
       id="path242"
       inkscape:connector-curvature="0"
       style="fill:#ffffff" />
    <path
       d="M 78.318131,0.256 81.752832,8.062208 90.495795,4.0029798 94.051277,0.256 c -5.624269,1.2758118 -10.697011,1.3182157 -15.733146,0 l 0,0 z"
       id="path244"
       inkscape:connector-curvature="0"
       style="fill:#ffffff" />
    <path
       d="M 53.650483,68.326139 47.717734,70.511877 43.970765,63.954662 81.128346,4.6274765 83.784909,3.7175552 C 87.45175,2.8889088 91.451085,2.0002816 94.055987,0.256 88.154982,8.227543 66.667674,45.487887 53.650483,68.326139 l 0,0 z"
       id="path246"
       inkscape:connector-curvature="0"
       style="fill:#ffffff" />
    <path
       d="M 45.532006,67.389394 47.093248,65.828152 83.852134,3.7041869 78.318131,0.256 C 73.880013,8.5225216 57.511373,35.272622 47.093248,52.401475 l -4.995994,9.367449 3.434752,5.62047 z"
       id="path248"
       inkscape:connector-curvature="0"
       style="fill:#ffffff" />
    <path
       d="m 15.868416,0.256 c 8.149043,14.441892 20.658637,34.645453 31.224832,52.145475 l 0,13.426677 -2.497997,2.497987 L 8.062208,3.3784832 15.868416,0.256 Z"
       id="path250"
       inkscape:connector-curvature="0"
       style="fill:#ffffff" />
    <path
       d="M 9.8469888,4.1839258 15.868416,0.256 C 9.4070272,1.6340122 6.704128,1.7217229 0.256,0.256 l 2.4979968,2.8102349 7.092992,1.1176909 z"
       id="path252"
       inkscape:connector-curvature="0"
       style="fill:#ffffff" />
    <path
       d="m 47.093248,65.828152 -2.810214,4.059229 -3.747021,-1.561242 C 33.55991,56.268795 13.053133,19.539272 0.256,0.256 2.850048,2.1357363 6.3546368,3.1672166 10.402304,3.8245939 L 47.093248,65.828152 Z"
       id="path254"
       inkscape:connector-curvature="0"
       style="fill:#ffffff" />
    <path
       d="m 54.587187,118.59812 -10.616422,-4.99598 0.936755,-44.339256 2.185728,-3.434732 6.557235,2.497987 0.936704,50.271981 z"
       id="path256"
       inkscape:connector-curvature="0"
       style="fill:#ffffff" />
    <path
       d="m 47.093248,115.16339 -7.493939,3.43473 0.936704,-50.271981 6.557235,-2.497987 0,49.335238 z"
       id="path258"
       inkscape:connector-curvature="0"
       style="fill:#ffffff" />
    <path
       d="M 71.448627,106.42043 C 84.475699,79.865836 98.961971,44.256005 111.53521,12.705434 l 5.50169,3.314764 -35.564593,86.999662 -7.213414,2.46383 -2.810266,0.93674 z"
       id="path260"
       inkscape:connector-curvature="0"
       style="fill:#ffffff" />
    <path
       d="m 151.70264,101.80025 10.93231,4.60417 c -4.19369,-1.05721 -9.87038,-1.46261 -15.5752,0.0268 l 2.13443,-5.25686 2.50846,0.62586 z"
       id="path262"
       inkscape:connector-curvature="0"
       style="fill:#ffffff" />
    <path
       d="m 92.685005,75.700413 7.686345,-3.298094 c 11.07185,0.389187 22.1437,0.383601 33.21553,0 l 7.79675,3.394673 -7.25856,1.58697 -35.934068,0 -5.505997,-1.683549 z"
       id="path264"
       inkscape:connector-curvature="0"
       style="fill:#ffffff" />
    <path
       d="m 97.804646,78.943299 -5.161062,-3.242886 c 16.216626,-0.248018 32.457626,-0.227814 48.726246,0.09658 L 136.2088,78.9433 c -12.80139,-0.414823 -25.60277,-0.365144 -38.404154,0 l 0,0 z"
       id="path266"
       inkscape:connector-curvature="0"
       style="fill:#ffffff" />
    <path
       d="m 183.85804,106.42043 -10.92869,-3.74698 0,-83.994799 3.12248,-1.561242 7.80621,-4.371476 c -1.6198,31.169567 -1.65529,62.394527 0,93.674497 l 0,0 z"
       id="path268"
       inkscape:connector-curvature="0"
       style="fill:#ffffff" />
    <path
       d="m 176.05183,102.04896 0,2.18574 -7.80621,2.18573 c 1.24129,-31.175179 1.35967,-62.39527 0,-93.674497 l 7.80621,4.371476 0,84.931551 z"
       id="path270"
       inkscape:connector-curvature="0"
       style="fill:#ffffff" />
    <path
       d="m 233.79123,106.42043 10.92869,-3.74698 0,-83.994799 -3.12248,-1.561242 -7.80621,-4.371476 c 1.6198,31.169567 1.65529,62.394527 0,93.674497 l 0,0 z"
       id="path272"
       inkscape:connector-curvature="0"
       style="fill:#ffffff" />
    <path
       d="m 176.08262,59.389343 6.56169,-2.925522 c 17.43733,0.43949 34.8952,0.406646 52.36932,0 l 6.58239,2.925522 -8.14174,1.945712 -50.86517,0 -6.50649,-1.945712 z"
       id="path274"
       inkscape:connector-curvature="0"
       style="fill:#ffffff" />
    <path
       d="m 304.51275,12.710897 c -30.66645,0 -45.96881,19.173109 -45.96881,47.051924 0,34.917013 23.16142,47.012889 45.56875,47.012889 26.61548,0 45.6956,-14.975334 45.6956,-46.925055 0,-30.748933 -18.06057,-47.139758 -45.29554,-47.139758 l 0,0 z m -0.91723,4.449541 c 0.28823,-0.0059 0.57918,0 0.86844,0 20.25356,0 35.12794,13.795225 35.12794,42.621895 0,28.790267 -14.85487,42.582867 -35.08891,42.582867 -22.07726,0 -35.04987,-15.820309 -35.04987,-42.504802 0,-30.179333 15.98416,-42.327946 34.1424,-42.69996 l 0,0 z"
       id="path276"
       inkscape:connector-curvature="0"
       style="fill:#ffffff" />
    <path
       d="m 304.40542,11.481421 c -33.12045,0 -50.49641,21.000197 -50.49641,48.222853 0,29.796424 18.96981,47.969156 50.44762,47.969156 34.03168,0 50.65253,-20.480403 50.65253,-47.656908 0,-30.300267 -19.8494,-48.535101 -50.60374,-48.535101 l 0,0 z m 0.0976,3.102966 c 26.15055,0 43.49036,15.731916 43.49036,45.256494 0,30.67756 -18.32495,45.061339 -43.88066,45.061339 -21.51512,0 -43.7538,-11.612702 -43.7538,-45.139399 0,-26.768737 14.69871,-45.178434 44.1441,-45.178434 l 0,0 z"
       id="path278"
       inkscape:connector-curvature="0"
       style="fill:#ffffff" />
    <path
       d="m 418.95179,7.9198208 c -31.12383,0 -52.44798,17.5956942 -52.44798,51.8918042 0,33.643699 19.83823,52.438175 52.57481,52.438175 24.7942,0 51.9601,-12.734521 51.9601,-51.960059 0,-42.334413 -29.67281,-52.3699202 -52.08693,-52.3699202 l 0,0 z m -0.1659,3.7469802 c 24.76848,0 43.01221,15.046748 43.01221,48.232627 0,36.074834 -22.06862,47.774002 -42.97318,47.774002 -22.3345,0 -42.68044,-13.107097 -42.68044,-48.486302 0,-36.670039 22.55154,-47.520327 42.64141,-47.520327 l 0,0 z"
       id="path280"
       inkscape:connector-curvature="0"
       style="fill:#ffffff" />
    <path
       d="m 418.74686,5.8414336 c -32.98317,0 -58.19529,18.7286884 -58.19529,53.5505924 0,28.689971 16.77036,53.940904 58.4685,53.940904 35.30202,0 58.35141,-19.408578 58.35141,-53.433502 0,-32.085392 -21.50182,-54.0579944 -58.62462,-54.0579944 l 0,0 z m 0.20493,3.4932787 c 21.80464,0 50.67203,9.7717807 50.67203,50.9550287 0,38.15893 -26.43498,50.545199 -50.55494,50.545199 -31.84643,0 -51.14044,-18.284699 -51.14044,-51.013572 0,-33.363517 20.74584,-50.4866557 51.02335,-50.4866557 l 0,0 z"
       id="path282"
       inkscape:connector-curvature="0"
       style="fill:#ffffff" />
    <path
       d="m 479.91805,111.77946 c 0,-4.02878 2.44997,-7.7752 7.36133,-7.7752 4.70102,0 8.21868,2.81148 8.21868,7.30221 0,5.59499 -3.70264,7.65695 -7.09525,7.65695 -4.69078,0 -8.48476,-2.43401 -8.48476,-7.18396 l 0,0 z"
       id="path284"
       inkscape:connector-curvature="0"
       style="fill:#ffffff" />
    <path
       d="m 487.7612,92.692843 c 3.807,-26.909281 6.12269,-55.189739 8.34615,-83.3884155 0,-5.6201933 3.71476,-7.818327 7.46295,-7.818327 0.65691,0 1.62576,0.1368576 1.62576,0.1368576 l -1.01952,6.7407565 -13.3528,83.5817934 -3.06254,0.747335 z"
       id="path286"
       inkscape:connector-curvature="0"
       style="fill:#ffffff" />
    <path
       d="m 39.599309,118.59812 7.507917,-5.50057 7.479961,5.50057 c 0,0 -4.146534,-0.75455 -7.480115,-0.75455 -3.007898,0 -7.507763,0.75455 -7.507763,0.75455 l 0,0 z"
       id="path288"
       inkscape:connector-curvature="0"
       style="fill:#ffffff" />
    <path
       d="m 71.44745,106.43202 10.473216,-4.52794 c 1.598003,1.91589 3.019622,3.53945 4.982323,4.50034 -3.770317,-1.02024 -9.478195,-1.478 -15.454362,0.0159 l -0.0012,0.0117 z"
       id="path290"
       inkscape:connector-curvature="0"
       style="fill:#ffffff" />
    <path
       d="m 168.24562,106.42043 c 5.07036,-1.22185 10.26237,-1.2759 15.5929,0 l -7.78669,-4.37147 -7.80621,4.37147 z"
       id="path292"
       inkscape:connector-curvature="0"
       style="fill:#ffffff" />
    <path
       d="m 182.64431,62.853018 -6.57549,-3.463675 c 21.84196,0.227753 43.68392,0.266035 65.52589,0 l -6.56697,3.443189 c -17.46114,-0.234557 -34.92229,-0.223349 -52.38343,0.02058 l 0,-9.7e-5 z"
       id="path294"
       inkscape:connector-curvature="0"
       style="fill:#ffffff" />
    <path
       d="m 241.59744,102.04896 0,2.18574 7.80621,2.18573 c -1.2413,-31.175179 -1.35967,-62.39527 0,-93.674497 l -7.80621,4.371476 0,84.931551 z"
       id="path296"
       inkscape:connector-curvature="0"
       style="fill:#ffffff" />
    <path
       d="m 249.40365,106.42043 c -5.07036,-1.22185 -10.26237,-1.2759 -15.59291,0 l 7.7867,-4.37147 7.80621,4.37147 z"
       id="path298"
       inkscape:connector-curvature="0"
       style="fill:#ffffff" />
    <path
       d="m 491.20524,89.536261 -3.45971,3.156582 c 2.31816,-0.408294 4.1109,0.196747 5.85328,0.898898 l -2.39357,-4.05548 z"
       id="path300"
       inkscape:connector-curvature="0"
       style="fill:#ffffff" />
    <path
       d="m 511.55581,8.3010203 c 0,3.6714157 -3.40678,6.6476737 -7.60926,6.6476737 -4.20249,0 -7.60926,-2.976258 -7.60926,-6.6476737 0,-3.6713849 3.40677,-6.6476424 7.60926,-6.6476424 4.20248,0 7.60926,2.9762575 7.60926,6.6476424 l 0,0 z"
       id="path302"
       inkscape:connector-curvature="0"
       style="fill:#ffffff" />
  </g>
</svg>
