<?xml version="1.0" encoding="UTF-8" standalone="no"?>
<!DOCTYPE svg PUBLIC "-//W3C//DTD SVG 1.1//EN"
 "http://www.w3.org/Graphics/SVG/1.1/DTD/svg11.dtd">
<!-- Generated by graphviz version 2.38.0 (20140413.2041)
 -->
<!-- Title: G Pages: 1 -->
<svg width="827pt" height="543pt"
 viewBox="0.00 0.00 826.68 543.00" xmlns="http://www.w3.org/2000/svg" xmlns:xlink="http://www.w3.org/1999/xlink">
<g id="graph0" class="graph" transform="scale(1 1) rotate(0) translate(72 471)">
<title>G</title>
<polygon fill="white" stroke="none" points="-72,72 -72,-471 754.682,-471 754.682,72 -72,72"/>
<!-- User -->
<g id="node1" class="node"><title>User</title>
<polygon fill="beige" stroke="black" points="169.739,-230 72.7393,-230 72.7393,-169 169.739,-169 169.739,-230"/>
<text text-anchor="middle" x="121.239" y="-192" font-family="sansserif" font-size="30.00">User</text>
</g>
<!-- IS_MEMBER_OF_GROUP -->
<g id="node7" class="node"><title>IS_MEMBER_OF_GROUP</title>
<ellipse fill="none" stroke="black" cx="120.239" cy="-115" rx="120.479" ry="18"/>
<text text-anchor="middle" x="120.239" y="-111.3" font-family="sansserif" font-size="14.00">IS_MEMBER_OF_GROUP</text>
</g>
<!-- User&#45;&gt;IS_MEMBER_OF_GROUP -->
<g id="edge1" class="edge"><title>User&#45;&gt;IS_MEMBER_OF_GROUP</title>
<path fill="none" stroke="black" d="M120.878,-168.716C120.777,-160.372 120.668,-151.348 120.569,-143.165"/>
<polygon fill="black" stroke="black" points="124.067,-142.976 120.446,-133.019 117.067,-143.061 124.067,-142.976"/>
</g>
<!-- Group -->
<g id="node2" class="node"><title>Group</title>
<polygon fill="beige" stroke="black" points="179.739,-61 60.7393,-61 60.7393,3.55271e-15 179.739,3.55271e-15 179.739,-61"/>
<text text-anchor="middle" x="120.239" y="-23" font-family="sansserif" font-size="30.00">Group</text>
</g>
<!-- Pronostic -->
<g id="node3" class="node"><title>Pronostic</title>
<polygon fill="beige" stroke="black" points="476.239,-399 312.239,-399 312.239,-338 476.239,-338 476.239,-399"/>
<text text-anchor="middle" x="394.239" y="-361" font-family="sansserif" font-size="30.00">Pronostic</text>
</g>
<!-- CREATED_BY_USER -->
<g id="node8" class="node"><title>CREATED_BY_USER</title>
<ellipse fill="none" stroke="black" cx="126.239" cy="-284" rx="100.983" ry="18"/>
<text text-anchor="middle" x="126.239" y="-280.3" font-family="sansserif" font-size="14.00">CREATED_BY_USER</text>
</g>
<!-- Pronostic&#45;&gt;CREATED_BY_USER -->
<g id="edge3" class="edge"><title>Pronostic&#45;&gt;CREATED_BY_USER</title>
<path fill="none" stroke="black" d="M312.009,-342.187C270.624,-329.447 221.455,-314.311 184.1,-302.812"/>
<polygon fill="black" stroke="black" points="184.97,-299.417 174.383,-299.82 182.91,-306.108 184.97,-299.417"/>
</g>
<!-- PREDICT_RISK -->
<g id="node9" class="node"><title>PREDICT_RISK</title>
<ellipse fill="none" stroke="black" cx="332.239" cy="-284" rx="77.1866" ry="18"/>
<text text-anchor="middle" x="332.239" y="-280.3" font-family="sansserif" font-size="14.00">PREDICT_RISK</text>
</g>
<!-- Pronostic&#45;&gt;PREDICT_RISK -->
<g id="edge5" class="edge"><title>Pronostic&#45;&gt;PREDICT_RISK</title>
<path fill="none" stroke="black" d="M371.856,-337.716C365.092,-328.715 357.734,-318.924 351.215,-310.25"/>
<polygon fill="black" stroke="black" points="353.835,-307.91 345.029,-302.019 348.239,-312.116 353.835,-307.91"/>
</g>
<!-- IS_ABOUT_GAME -->
<g id="node11" class="node"><title>IS_ABOUT_GAME</title>
<ellipse fill="none" stroke="black" cx="458.239" cy="-199.5" rx="89.0842" ry="18"/>
<text text-anchor="middle" x="458.239" y="-195.8" font-family="sansserif" font-size="14.00">IS_ABOUT_GAME</text>
</g>
<!-- Pronostic&#45;&gt;IS_ABOUT_GAME -->
<g id="edge7" class="edge"><title>Pronostic&#45;&gt;IS_ABOUT_GAME</title>
<path fill="none" stroke="black" d="M405.681,-337.644C417.698,-306.288 436.422,-257.43 447.976,-227.281"/>
<polygon fill="black" stroke="black" points="451.289,-228.416 451.599,-217.826 444.753,-225.911 451.289,-228.416"/>
</g>
<!-- PREDICT_SCORE -->
<g id="node12" class="node"><title>PREDICT_SCORE</title>
<ellipse fill="none" stroke="black" cx="594.239" cy="-284" rx="87.9851" ry="18"/>
<text text-anchor="middle" x="594.239" y="-280.3" font-family="sansserif" font-size="14.00">PREDICT_SCORE</text>
</g>
<!-- Pronostic&#45;&gt;PREDICT_SCORE -->
<g id="edge9" class="edge"><title>Pronostic&#45;&gt;PREDICT_SCORE</title>
<path fill="none" stroke="black" d="M465.879,-337.949C493.09,-326.724 523.356,-314.239 547.662,-304.213"/>
<polygon fill="black" stroke="black" points="549.095,-307.408 557.005,-300.359 546.426,-300.937 549.095,-307.408"/>
</g>
<!-- Risk -->
<g id="node4" class="node"><title>Risk</title>
<polygon fill="beige" stroke="black" points="350.739,-230 259.739,-230 259.739,-169 350.739,-169 350.739,-230"/>
<text text-anchor="middle" x="305.239" y="-192" font-family="sansserif" font-size="30.00">Risk</text>
</g>
<!-- RISK_HAPPENED -->
<g id="node10" class="node"><title>RISK_HAPPENED</title>
<ellipse fill="none" stroke="black" cx="345.239" cy="-115" rx="87.1846" ry="18"/>
<text text-anchor="middle" x="345.239" y="-111.3" font-family="sansserif" font-size="14.00">RISK_HAPPENED</text>
</g>
<!-- Risk&#45;&gt;RISK_HAPPENED -->
<g id="edge11" class="edge"><title>Risk&#45;&gt;RISK_HAPPENED</title>
<path fill="none" stroke="black" d="M319.68,-168.716C323.908,-159.997 328.495,-150.535 332.601,-142.067"/>
<polygon fill="black" stroke="black" points="335.774,-143.544 336.988,-133.019 329.476,-140.49 335.774,-143.544"/>
</g>
<!-- Game -->
<g id="node5" class="node"><title>Game</title>
<polygon fill="beige" stroke="black" points="519.739,-61 400.739,-61 400.739,3.55271e-15 519.739,3.55271e-15 519.739,-61"/>
<text text-anchor="middle" x="460.239" y="-23" font-family="sansserif" font-size="30.00">Game</text>
</g>
<!-- Team -->
<g id="node6" class="node"><title>Team</title>
<polygon fill="beige" stroke="black" points="673.239,-230 565.239,-230 565.239,-169 673.239,-169 673.239,-230"/>
<text text-anchor="middle" x="619.239" y="-192" font-family="sansserif" font-size="30.00">Team</text>
</g>
<!-- PLAYS_IN_GAME -->
<g id="node13" class="node"><title>PLAYS_IN_GAME</title>
<ellipse fill="none" stroke="black" cx="596.239" cy="-115" rx="86.3847" ry="18"/>
<text text-anchor="middle" x="596.239" y="-111.3" font-family="sansserif" font-size="14.00">PLAYS_IN_GAME</text>
</g>
<!-- Team&#45;&gt;PLAYS_IN_GAME -->
<g id="edge13" class="edge"><title>Team&#45;&gt;PLAYS_IN_GAME</title>
<path fill="none" stroke="black" d="M610.936,-168.716C608.583,-160.278 606.037,-151.145 603.736,-142.889"/>
<polygon fill="black" stroke="black" points="607.041,-141.712 600.984,-133.019 600.298,-143.592 607.041,-141.712"/>
</g>
<!-- IS_MEMBER_OF_GROUP&#45;&gt;Group -->
<g id="edge2" class="edge"><title>IS_MEMBER_OF_GROUP&#45;&gt;Group</title>
<path fill="none" stroke="black" d="M120.239,-96.9059C120.239,-89.4304 120.239,-80.3206 120.239,-71.3032"/>
<polygon fill="black" stroke="black" points="123.739,-71.2534 120.239,-61.2534 116.739,-71.2535 123.739,-71.2534"/>
</g>
<!-- CREATED_BY_USER&#45;&gt;User -->
<g id="edge4" class="edge"><title>CREATED_BY_USER&#45;&gt;User</title>
<path fill="none" stroke="black" d="M125.203,-265.906C124.75,-258.43 124.198,-249.321 123.652,-240.303"/>
<polygon fill="black" stroke="black" points="127.141,-240.023 123.043,-230.253 120.154,-240.447 127.141,-240.023"/>
</g>
<!-- PREDICT_RISK&#45;&gt;Risk -->
<g id="edge6" class="edge"><title>PREDICT_RISK&#45;&gt;Risk</title>
<path fill="none" stroke="black" d="M326.645,-265.906C324.172,-258.35 321.153,-249.125 318.171,-240.012"/>
<polygon fill="black" stroke="black" points="321.414,-238.669 314.977,-230.253 314.761,-240.846 321.414,-238.669"/>
</g>
<!-- RISK_HAPPENED&#45;&gt;Game -->
<g id="edge12" class="edge"><title>RISK_HAPPENED&#45;&gt;Game</title>
<path fill="none" stroke="black" d="M368.235,-97.5032C380.289,-88.8554 395.554,-77.9044 410.168,-67.4205"/>
<polygon fill="black" stroke="black" points="412.583,-69.9957 418.668,-61.3227 408.503,-64.3079 412.583,-69.9957"/>
</g>
<!-- IS_ABOUT_GAME&#45;&gt;Game -->
<g id="edge8" class="edge"><title>IS_ABOUT_GAME&#45;&gt;Game</title>
<path fill="none" stroke="black" d="M458.446,-181.257C458.753,-155.579 459.34,-106.57 459.759,-71.6108"/>
<polygon fill="black" stroke="black" points="463.263,-71.2952 459.883,-61.254 456.263,-71.2113 463.263,-71.2952"/>
</g>
<!-- PREDICT_SCORE&#45;&gt;Team -->
<g id="edge10" class="edge"><title>PREDICT_SCORE&#45;&gt;Team</title>
<path fill="none" stroke="black" d="M599.419,-265.906C601.709,-258.35 604.505,-249.125 607.266,-240.012"/>
<polygon fill="black" stroke="black" points="610.673,-240.839 610.223,-230.253 603.973,-238.809 610.673,-240.839"/>
</g>
<!-- PLAYS_IN_GAME&#45;&gt;Game -->
<g id="edge14" class="edge"><title>PLAYS_IN_GAME&#45;&gt;Game</title>
<path fill="none" stroke="black" d="M569.37,-97.7007C554.601,-88.7418 535.687,-77.2677 517.766,-66.3968"/>
<polygon fill="black" stroke="black" points="519.436,-63.3164 509.071,-61.1223 515.806,-69.3013 519.436,-63.3164"/>
</g>
</g>
</svg>
